<svg width="32" height="32" viewBox="0 0 32 32" fill="none" xmlns="http://www.w3.org/2000/svg">
<path fill-rule="evenodd" clip-rule="evenodd" d="M8.23492 8.9446C9.49355 7.62103 9.93836 7.2498 10.4747 7.07703C10.8459 6.97994 11.2352 6.97454 11.6089 7.06133C12.1009 7.20411 12.2311 7.31262 13.8443 8.91747C15.2617 10.3267 15.4033 10.4795 15.5392 10.7551C15.7991 11.2388 15.8397 11.8102 15.6508 12.3256C15.5077 12.7183 15.3046 12.9782 14.445 13.8391L13.8844 14.4003C13.7372 14.5497 13.7026 14.7764 13.7986 14.9629C15.0443 17.0843 16.8115 18.8535 18.9332 20.103C19.1775 20.2335 19.4783 20.1914 19.6769 19.9988L20.2161 19.469C20.5494 19.1279 20.9024 18.8067 21.2731 18.5067C21.8555 18.1497 22.581 18.1179 23.1925 18.4225C23.4914 18.5652 23.5901 18.6538 25.0518 20.1101C26.5593 21.6107 26.6022 21.6579 26.7681 22.002C27.0803 22.5715 27.0771 23.2614 26.7595 23.8281C26.5979 24.148 26.4992 24.2636 25.6511 25.1289C25.1391 25.6514 24.6571 26.1283 24.5798 26.1983C23.8802 26.7765 22.9825 27.0603 22.0769 26.9893C20.4201 26.8385 18.8163 26.3272 17.3785 25.4915C14.1936 23.8069 11.4822 21.3525 9.49212 18.3525C9.05867 17.7245 8.67331 17.0649 8.33933 16.3793C7.44339 14.8462 6.98073 13.0994 7.00061 11.3248C7.06901 10.3963 7.51501 9.53631 8.23492 8.9446Z" stroke="#3F3F50" stroke-width="1.25" stroke-linecap="round" stroke-linejoin="round"/>
</svg>
