<svg width="32" height="32" viewBox="0 0 32 32" fill="none" xmlns="http://www.w3.org/2000/svg">
<path d="M16 26C21.5228 26 26 21.5228 26 16C26 10.4771 21.5228 6 16 6C10.4771 6 6 10.4771 6 16C6 17.5997 6.37562 19.1116 7.04346 20.4525C7.22094 20.8088 7.28001 21.2161 7.17712 21.6006L6.58151 23.8267C6.32295 24.793 7.20701 25.677 8.17335 25.4185L10.3994 24.8229C10.7839 24.72 11.1912 24.7791 11.5475 24.9565C12.8884 25.6244 14.4003 26 16 26Z" stroke="#3F3F50" stroke-width="1.25"/>
<path opacity="0.5" d="M12 13.5381H20" stroke="#3F3F50" stroke-width="1.25" stroke-linecap="round"/>
<path opacity="0.5" d="M12 18.4619H17.6" stroke="#3F3F50" stroke-width="1.25" stroke-linecap="round"/>
</svg>
