<?xml version="1.0" standalone="no"?>
<!DOCTYPE svg PUBLIC "-//W3C//DTD SVG 20010904//EN"
 "http://www.w3.org/TR/2001/REC-SVG-20010904/DTD/svg10.dtd">
<svg version="1.0" xmlns="http://www.w3.org/2000/svg"
 width="256.000000pt" height="256.000000pt" viewBox="0 0 256.000000 256.000000"
 preserveAspectRatio="xMidYMid meet">

<g transform="translate(0.000000,256.000000) scale(0.100000,-0.100000)"
fill="#000000" stroke="none">
<path d="M132 2434 c-29 -14 -64 -41 -78 -60 -50 -64 -54 -101 -54 -445 0
-311 0 -319 21 -329 44 -24 49 -4 49 206 l0 194 1210 0 1210 0 2 -502 3 -503
24 -3 c13 -2 28 2 32 10 5 7 9 290 9 629 0 667 0 671 -55 742 -14 20 -50 47
-78 62 l-51 25 -1096 0 -1096 0 -52 -26z m2251 -58 c41 -17 81 -62 96 -105 6
-19 11 -69 11 -112 l0 -79 -1210 0 -1210 0 0 79 c0 90 12 135 49 175 53 58 -5
55 1159 56 889 0 1078 -2 1105 -14z"/>
<path d="M1822 2261 c-8 -4 -12 -19 -10 -32 4 -33 53 -40 63 -9 11 36 -22 61
-53 41z"/>
<path d="M2021 2256 c-19 -23 -4 -56 25 -56 28 0 42 25 27 49 -14 22 -37 25
-52 7z"/>
<path d="M2220 2249 c-9 -15 -8 -24 1 -35 27 -33 79 1 58 39 -14 23 -46 21
-59 -4z"/>
<path d="M733 1920 c-38 -16 -45 -43 -41 -180 4 -167 1 -164 149 -168 146 -5
175 1 195 39 14 27 14 35 0 82 -32 110 -112 190 -220 222 -56 17 -53 17 -83 5z
m105 -89 c48 -25 97 -77 116 -123 29 -68 28 -69 -86 -66 l-103 3 -3 103 c-3
97 -2 102 18 102 11 0 37 -9 58 -19z"/>
<path d="M1893 1764 c-11 -28 12 -49 57 -54 l43 -5 -201 -162 c-110 -90 -203
-163 -205 -163 -3 0 -7 18 -11 40 -11 73 -70 102 -126 63 -38 -26 -533 -444
-547 -461 -16 -19 1 -52 27 -52 10 0 141 103 292 229 l273 229 7 -41 c8 -45
45 -87 77 -87 26 0 67 30 276 200 101 82 186 150 189 150 3 0 6 -19 8 -42 3
-37 7 -44 27 -46 13 -2 28 2 32 10 10 15 12 168 3 192 -9 24 -212 24 -221 0z"/>
<path d="M470 1746 c-92 -24 -163 -87 -207 -184 -22 -46 -24 -65 -21 -135 4
-96 28 -155 89 -216 67 -67 118 -86 229 -86 86 0 100 3 148 29 65 36 107 83
139 154 30 65 33 114 9 141 -16 18 -33 21 -140 23 l-121 3 -3 121 c-2 100 -6
124 -20 137 -26 23 -53 27 -102 13z m50 -181 c0 -110 1 -117 25 -140 23 -24
30 -25 140 -25 133 0 134 -1 86 -85 -59 -104 -176 -148 -295 -113 -55 16 -138
99 -154 154 -36 123 15 251 121 303 76 38 77 37 77 -94z"/>
<path d="M12 1478 c-16 -16 -17 -1142 -1 -1203 16 -59 57 -113 108 -143 l46
-27 1115 0 1115 0 46 27 c51 30 92 84 108 143 7 24 11 149 11 311 0 290 -2
304 -50 289 -20 -6 -20 -13 -20 -279 0 -291 -4 -320 -49 -370 -54 -59 3 -56
-1160 -56 -731 0 -1079 3 -1098 11 -35 13 -81 56 -97 89 -8 18 -12 203 -16
620 -5 587 -5 595 -25 598 -11 1 -26 -3 -33 -10z"/>
<path d="M2059 1301 l-29 -29 0 -361 0 -361 -40 0 -40 0 0 305 c0 290 -1 306
-20 325 -27 27 -57 33 -151 28 -74 -3 -83 -6 -105 -31 l-24 -28 0 -300 0 -299
-35 0 -35 0 0 200 c0 284 -7 295 -172 288 -75 -3 -91 -6 -110 -26 -22 -22 -23
-29 -26 -242 l-3 -220 -35 0 -34 0 0 131 0 131 -29 29 c-28 28 -33 29 -125 29
-86 0 -98 -2 -123 -24 -28 -24 -28 -26 -31 -160 l-4 -135 -30 -3 c-34 -3 -54
-27 -45 -52 6 -15 75 -16 801 -16 792 0 795 0 801 20 9 30 -12 50 -51 50 l-34
0 0 359 c0 198 -3 367 -6 376 -12 31 -60 45 -149 45 -82 0 -88 -1 -116 -29z
m199 -398 l2 -353 -80 0 -80 0 0 348 c0 192 3 352 7 356 4 4 39 5 78 4 l70 -3
3 -352z m-380 -60 l2 -293 -80 0 -80 0 0 288 c0 159 3 292 7 296 4 4 39 5 78
4 l70 -3 3 -292z m-380 -86 l2 -208 -77 3 -78 3 -3 185 c-1 102 0 195 3 208 5
22 10 23 78 20 l72 -3 3 -208z m-370 -84 l3 -123 -81 0 -80 0 0 125 0 126 78
-3 77 -3 3 -122z"/>
<path d="M252 918 c-16 -16 -15 -43 2 -57 9 -8 76 -11 221 -9 185 3 209 5 219
21 8 12 8 22 0 35 -10 15 -34 17 -220 20 -155 2 -213 -1 -222 -10z"/>
<path d="M247 724 c-13 -13 -7 -52 9 -58 24 -9 417 -7 432 3 8 4 12 19 10 32
l-3 24 -221 3 c-121 1 -223 -1 -227 -4z"/>
<path d="M244 526 c-3 -8 -4 -23 -2 -33 3 -17 19 -18 228 -18 l225 0 0 30 0
30 -223 3 c-188 2 -223 0 -228 -12z"/>
</g>
</svg>
