<svg width="32" height="32" viewBox="0 0 32 32" fill="none" xmlns="http://www.w3.org/2000/svg">
<path d="M7.6665 15.9999C7.6665 12.8572 7.6665 11.2859 8.64281 10.3096C9.61913 9.33325 11.1905 9.33325 14.3332 9.33325H17.6665C20.8092 9.33325 22.3806 9.33325 23.3568 10.3096C24.3332 11.2859 24.3332 12.8572 24.3332 15.9999V17.6666C24.3332 20.8093 24.3332 22.3807 23.3568 23.3569C22.3806 24.3333 20.8092 24.3333 17.6665 24.3333H14.3332C11.1905 24.3333 9.61913 24.3333 8.64281 23.3569C7.6665 22.3807 7.6665 20.8093 7.6665 17.6666V15.9999Z" stroke="#3F3F50" stroke-width="1.25"/>
<path opacity="0.5" d="M11.8335 9.33325V8.08325" stroke="#3F3F50" stroke-width="1.25" stroke-linecap="round"/>
<path opacity="0.5" d="M20.1665 9.33325V8.08325" stroke="#3F3F50" stroke-width="1.25" stroke-linecap="round"/>
<path opacity="0.5" d="M8.0835 13.5H23.9168" stroke="#3F3F50" stroke-width="1.25" stroke-linecap="round"/>
<path d="M21.0002 20.1666C21.0002 20.6268 20.6271 20.9999 20.1668 20.9999C19.7066 20.9999 19.3335 20.6268 19.3335 20.1666C19.3335 19.7063 19.7066 19.3333 20.1668 19.3333C20.6271 19.3333 21.0002 19.7063 21.0002 20.1666Z" fill="#3F3F50"/>
<path d="M21.0002 16.8333C21.0002 17.2936 20.6271 17.6667 20.1668 17.6667C19.7066 17.6667 19.3335 17.2936 19.3335 16.8333C19.3335 16.3731 19.7066 16 20.1668 16C20.6271 16 21.0002 16.3731 21.0002 16.8333Z" fill="#3F3F50"/>
<path d="M16.8332 20.1666C16.8332 20.6268 16.4601 20.9999 15.9998 20.9999C15.5396 20.9999 15.1665 20.6268 15.1665 20.1666C15.1665 19.7063 15.5396 19.3333 15.9998 19.3333C16.4601 19.3333 16.8332 19.7063 16.8332 20.1666Z" fill="#3F3F50"/>
<path d="M16.8332 16.8333C16.8332 17.2936 16.4601 17.6667 15.9998 17.6667C15.5396 17.6667 15.1665 17.2936 15.1665 16.8333C15.1665 16.3731 15.5396 16 15.9998 16C16.4601 16 16.8332 16.3731 16.8332 16.8333Z" fill="#3F3F50"/>
<path d="M12.6667 20.1666C12.6667 20.6268 12.2936 20.9999 11.8333 20.9999C11.3731 20.9999 11 20.6268 11 20.1666C11 19.7063 11.3731 19.3333 11.8333 19.3333C12.2936 19.3333 12.6667 19.7063 12.6667 20.1666Z" fill="#3F3F50"/>
<path d="M12.6667 16.8333C12.6667 17.2936 12.2936 17.6667 11.8333 17.6667C11.3731 17.6667 11 17.2936 11 16.8333C11 16.3731 11.3731 16 11.8333 16C12.2936 16 12.6667 16.3731 12.6667 16.8333Z" fill="#3F3F50"/>
</svg>
