<svg width="222" height="234" viewBox="0 0 222 234" fill="none" xmlns="http://www.w3.org/2000/svg">
<path d="M146.135 179.132H198.631L206.588 185.08V159.896C206.588 157.261 204.448 155.125 201.808 155.125H146.135C143.496 155.125 141.356 157.261 141.356 159.896V174.361C141.356 176.996 143.496 179.132 146.135 179.132Z" fill="#DADCFB"/>
<path d="M200.972 161.81H146.972C146.862 161.81 146.773 161.721 146.773 161.611C146.773 161.501 146.862 161.412 146.972 161.412H200.972C201.082 161.412 201.171 161.501 201.171 161.611C201.171 161.721 201.082 161.81 200.972 161.81Z" fill="white"/>
<path d="M200.972 167.78H146.972C146.862 167.78 146.773 167.691 146.773 167.581C146.773 167.471 146.862 167.382 146.972 167.382H200.972C201.082 167.382 201.171 167.471 201.171 167.581C201.171 167.691 201.082 167.78 200.972 167.78Z" fill="white"/>
<path d="M200.972 173.749H168.901C168.791 173.749 168.702 173.66 168.702 173.55C168.702 173.44 168.791 173.351 168.901 173.351H200.972C201.082 173.351 201.171 173.44 201.171 173.55C201.171 173.66 201.082 173.749 200.972 173.749Z" fill="white"/>
<path d="M174.54 167.708L173.971 167.77L180.997 231.858L181.566 231.796L174.54 167.708Z" fill="#292A2E"/>
<path d="M192.738 195.686L189.281 229.818L189.851 229.875L193.307 195.743L192.738 195.686Z" fill="#292A2E"/>
<path d="M198.681 225.692H173.034V234H198.681V225.692Z" fill="#292A2E"/>
<path opacity="0.2" d="M198.681 225.692H173.034V234H198.681V225.692Z" fill="white"/>
<path d="M214.142 210.394C219.001 203.949 216.685 194.026 208.969 188.232C201.254 182.437 191.06 182.964 186.202 189.41C181.343 195.855 183.659 205.778 191.375 211.573C199.091 217.367 209.284 216.84 214.142 210.394Z" fill="#D1D1DB"/>
<path opacity="0.2" d="M214.142 210.394C219.001 203.949 216.685 194.026 208.969 188.232C201.254 182.437 191.06 182.964 186.202 189.41C181.343 195.855 183.659 205.778 191.375 211.573C199.091 217.367 209.284 216.84 214.142 210.394Z" fill="white"/>
<path opacity="0.5" d="M214.142 210.395C213.812 210.835 213.455 211.247 213.076 211.628C207.728 215.038 199.834 214.501 193.572 209.797C185.857 204.004 183.541 194.081 188.4 187.635C188.73 187.196 189.086 186.787 189.463 186.403C194.814 182.99 202.705 183.529 208.971 188.231C216.685 194.027 219.001 203.95 214.142 210.395Z" fill="white"/>
<path d="M178.35 185.941C185.994 180.051 188.071 169.951 182.99 163.381C177.909 156.811 167.594 156.259 159.951 162.148C152.308 168.038 150.23 178.138 155.311 184.708C160.392 191.278 170.707 191.83 178.35 185.941Z" fill="#D1D1DB"/>
<path opacity="0.2" d="M175.929 184.25C170.009 188.814 162.486 189.509 157.033 186.539C156.411 185.992 155.835 185.381 155.312 184.705C150.23 178.137 152.308 168.036 159.951 162.148C165.87 157.587 173.393 156.889 178.844 159.857C179.469 160.404 180.045 161.018 180.568 161.693C185.65 168.261 183.572 178.362 175.929 184.25Z" fill="white"/>
<path d="M217.22 89.5224H149.691L141.134 95.9193V62.0584C141.134 59.4234 143.274 57.2876 145.914 57.2876H217.22C219.86 57.2876 222 59.4236 222 62.0584V84.7515C222 87.3866 219.86 89.5224 217.22 89.5224Z" fill="#DADCFB"/>
<path d="M215.96 64.4611H147.174C147.064 64.4611 146.974 64.3721 146.974 64.2621C146.974 64.1521 147.064 64.063 147.174 64.063H215.96C216.071 64.063 216.16 64.1521 216.16 64.2621C216.16 64.3721 216.071 64.4611 215.96 64.4611Z" fill="white"/>
<path d="M215.96 70.8806H147.174C147.064 70.8806 146.974 70.7915 146.974 70.6815C146.974 70.5715 147.064 70.4824 147.174 70.4824H215.96C216.071 70.4824 216.16 70.5715 216.16 70.6815C216.16 70.7915 216.071 70.8806 215.96 70.8806Z" fill="white"/>
<path d="M215.96 77.3003H147.174C147.064 77.3003 146.974 77.2112 146.974 77.1012C146.974 76.9912 147.064 76.9021 147.174 76.9021H215.96C216.071 76.9021 216.16 76.9912 216.16 77.1012C216.16 77.2112 216.071 77.3003 215.96 77.3003Z" fill="white"/>
<path d="M204 83.7197H147.174C147.064 83.7197 146.974 83.6306 146.974 83.5206C146.974 83.4106 147.064 83.3215 147.174 83.3215H204C204.11 83.3215 204.199 83.4106 204.199 83.5206C204.199 83.6306 204.11 83.7197 204 83.7197Z" fill="white"/>
<path d="M8.20285 155.808H60.6986L68.6554 161.756V136.572C68.6554 133.937 66.5154 131.801 63.8758 131.801H8.20285C5.56298 131.801 3.42328 133.937 3.42328 136.572V151.037C3.42328 153.672 5.56324 155.808 8.20285 155.808Z" fill="#DADCFB"/>
<path d="M63.0387 138.486H9.03959C8.9294 138.486 8.84015 138.397 8.84015 138.287C8.84015 138.177 8.9294 138.088 9.03959 138.088H63.0387C63.1489 138.088 63.2382 138.177 63.2382 138.287C63.2382 138.397 63.1489 138.486 63.0387 138.486Z" fill="white"/>
<path d="M63.0387 144.456H9.03959C8.9294 144.456 8.84015 144.367 8.84015 144.257C8.84015 144.147 8.9294 144.058 9.03959 144.058H63.0387C63.1489 144.058 63.2382 144.147 63.2382 144.257C63.2382 144.367 63.1489 144.456 63.0387 144.456Z" fill="white"/>
<path d="M63.0387 150.425H30.9687C30.8585 150.425 30.7692 150.336 30.7692 150.226C30.7692 150.116 30.8585 150.027 30.9687 150.027H63.0387C63.1489 150.027 63.2382 150.116 63.2382 150.226C63.2382 150.336 63.1489 150.425 63.0387 150.425Z" fill="white"/>
<path d="M94.4225 39.5442H10.4964L0 47.3916V4.77083C0 2.13604 2.13996 0 4.77957 0H94.4222C97.0621 0 99.2018 2.13604 99.2018 4.77083V34.7732C99.2018 37.4082 97.0619 39.544 94.4222 39.544L94.4225 39.5442Z" fill="#DADCFB"/>
<path d="M91.7928 8.75558H7.40922C7.29903 8.75558 7.20978 8.66649 7.20978 8.5565C7.20978 8.44651 7.29903 8.35742 7.40922 8.35742H91.7928C91.903 8.35742 91.9923 8.44651 91.9923 8.5565C91.9923 8.66649 91.903 8.75558 91.7928 8.75558Z" fill="white"/>
<path d="M91.7928 16.6303H7.40922C7.29903 16.6303 7.20978 16.5412 7.20978 16.4313C7.20978 16.3213 7.29903 16.2322 7.40922 16.2322H91.7928C91.903 16.2322 91.9923 16.3213 91.9923 16.4313C91.9923 16.5412 91.903 16.6303 91.7928 16.6303Z" fill="white"/>
<path d="M91.7928 24.5056H7.40922C7.29903 24.5056 7.20978 24.4165 7.20978 24.3065C7.20978 24.1965 7.29903 24.1074 7.40922 24.1074H91.7928C91.903 24.1074 91.9923 24.1965 91.9923 24.3065C91.9923 24.4165 91.903 24.5056 91.7928 24.5056Z" fill="white"/>
<path d="M49.7155 32.3806H7.40922C7.29903 32.3806 7.20978 32.2915 7.20978 32.1815C7.20978 32.0715 7.29903 31.9824 7.40922 31.9824H49.7155C49.8257 31.9824 49.915 32.0715 49.915 32.1815C49.915 32.2915 49.8257 32.3806 49.7155 32.3806Z" fill="white"/>
<path d="M42.3859 30.8995C42.3859 30.8995 39.6932 28.2263 39.6639 22.916C39.6411 18.8046 43.0094 21.9266 43.0094 21.9266C43.0094 21.9266 43.022 18.966 45.1038 19.5447C47.1859 20.1234 47.9559 23.3405 47.9559 23.3405" fill="#0C0C0C"/>
<path d="M56.0274 21.385C56.0274 21.385 66.4037 23.9519 60.6421 37.6752L59.7017 37.6102L57.7928 37.478" fill="#0C0C0C"/>
<path d="M42.7094 51.9379C42.7563 51.9319 43.2748 60.521 53.271 59.772C60.1913 59.2544 62.659 51.9256 62.8173 51.9256C62.0711 51.7673 61.149 51.5272 60.7826 51.4446C59.5653 51.1708 58.0454 50.1679 57.6941 48.0556C57.4918 46.8381 57.8352 40.6098 57.7294 39.3779L47.1066 41.7447C47.255 44.3463 48.2938 50.3774 44.6528 51.4446C44.0469 51.6213 43.3944 51.7835 42.7092 51.9376L42.7094 51.9379Z" fill="#FF9E85"/>
<path opacity="0.22" d="M46.9579 48.9797C47.1084 48.5003 47.198 48.0833 47.2775 47.334C47.4199 45.9938 47.344 44.7617 47.2082 43.5063C49.3541 43.2213 51.4145 42.3202 53.0792 40.939C53.2765 41.666 54.3612 44.8432 54.061 45.5345C53.4932 46.8408 50.8254 48.98 46.9582 48.98L46.9579 48.9797Z" fill="#0C0C0C"/>
<path d="M48.5467 46.4747C52.7497 46.6706 58.0786 44.7316 58.9222 39.1156L59.6836 34.0482C60.5272 28.4322 58.2561 23.4372 52.9588 22.6443C47.6615 21.8514 43.0178 25.8113 42.1742 31.4273L41.8371 33.6707C41.7677 34.1326 41.6918 34.9684 41.6892 36.0003C41.684 38.059 41.684 41.1907 42.7736 43.4579C43.8022 45.5984 45.8615 46.3495 48.5467 46.4747Z" fill="#FF9E85"/>
<path d="M44.0941 35.9043C44.4166 35.9043 44.678 35.6433 44.678 35.3214C44.678 34.9995 44.4166 34.7385 44.0941 34.7385C43.7716 34.7385 43.5101 34.9995 43.5101 35.3214C43.5101 35.6433 43.7716 35.9043 44.0941 35.9043Z" fill="#0A0A0A"/>
<path d="M47.7252 39.0328C47.8435 39.0328 47.9448 38.9437 47.9573 38.8238C47.9707 38.6958 47.8777 38.5811 47.7492 38.5675L46.512 38.4384L47.2737 35.9714C47.3116 35.8483 47.2425 35.7177 47.119 35.6798C46.9957 35.6419 46.8651 35.7109 46.8269 35.834L45.9817 38.5719C45.9613 38.6386 45.9718 38.7109 46.0103 38.7692C46.0487 38.8275 46.1113 38.8653 46.1809 38.8727L47.7008 39.0312C47.7089 39.032 47.7173 39.0325 47.7252 39.0325V39.0328Z" fill="#0A0A0A"/>
<path d="M47.9997 41.6736C50.1174 41.6736 50.7477 40.3963 50.776 40.3362C50.8309 40.2197 50.7809 40.0807 50.6645 40.0258C50.5485 39.971 50.4098 40.0203 50.354 40.1358C50.3276 40.1902 49.6808 41.4447 47.3506 41.1667C47.22 41.1505 47.1061 41.2428 47.0907 41.3705C47.0755 41.4983 47.1669 41.6145 47.2949 41.6297C47.5464 41.6597 47.7812 41.6733 47.9997 41.6733V41.6736Z" fill="#0A0A0A"/>
<path d="M49.7672 32.3854C49.7112 32.5592 50.3444 32.8188 51.2345 33.0571C52.1247 33.2954 52.9306 33.467 52.991 33.2478C53.0675 32.9712 52.4042 32.3196 51.5138 32.0816C50.6234 31.8436 49.8554 32.1121 49.7672 32.3854Z" fill="#0A0A0A"/>
<path d="M49.9512 36.2764C50.2738 36.2764 50.5354 36.0153 50.5354 35.6932C50.5354 35.3712 50.2738 35.1101 49.9512 35.1101C49.6286 35.1101 49.367 35.3712 49.367 35.6932C49.367 36.0153 49.6286 36.2764 49.9512 36.2764Z" fill="#0A0A0A"/>
<path d="M42.6731 32.5073C42.6925 32.6889 43.3766 32.6698 44.2872 32.5269C45.1978 32.384 46.0039 32.2147 45.9702 31.9898C45.9275 31.706 45.1512 31.3591 44.2409 31.502C43.3303 31.6449 42.6427 32.222 42.6733 32.5073H42.6731Z" fill="#0A0A0A"/>
<path d="M58.3361 40.7773C59.9461 41.0181 61.5094 39.4945 61.7508 37.8875C61.9921 36.2805 60.8203 35.1991 59.2103 34.958L58.2192 35.9106L56.9521 40.5701L58.3361 40.7773Z" fill="#FF9E85"/>
<path d="M57.5842 37.9944C57.312 37.9816 57.1007 37.753 57.112 37.4812C57.1858 35.7251 57.2824 29.8131 55.2838 29.1139C53.7181 28.5663 49.4996 30.3126 45.9764 29.1294C44.435 28.6118 42.879 28.7973 42.6236 29.5225C42.5225 29.8097 42.1192 25.4289 45.0399 22.5454C47.3652 20.2495 53.9222 20.408 56.7448 21.6511C64.56 25.0929 59.4948 35.3541 59.4948 35.3541L58.8604 37.667C58.7992 37.8904 58.5908 38.0414 58.3592 38.0304L57.5842 37.9944Z" fill="#0C0C0C"/>
<path d="M50.6294 23.3472C51.2371 21.6436 50.7898 19.9285 49.6303 19.5163C48.4707 19.1041 47.038 20.151 46.4303 21.8546C45.8225 23.5582 46.2698 25.2733 47.4294 25.6855C48.5889 26.0977 50.0216 25.0508 50.6294 23.3472Z" fill="#0C0C0C"/>
<path d="M59.7919 199.147C59.7919 199.147 66.7536 202.994 65.3556 209C63.958 215.007 69.048 215.118 69.048 215.118L75.7343 192.562L64.4443 189.228L59.7914 199.147L59.7919 199.147Z" fill="#2330E7"/>
<path d="M33.0631 102.875C33.0631 102.875 20.1297 154.057 23.6877 161.633C27.1856 169.081 63.4075 202.173 63.4075 202.173L69.9332 190.068L42.1964 156.643C42.1964 156.643 50.0776 138.536 54.6213 124.616C57.3604 116.225 60.3321 108.698 60.7698 99.8835L33.0631 102.875Z" fill="#262626"/>
<path d="M52.1385 168.369L48.4045 164.124L49.3764 189.04L53.5382 192.989L52.1385 168.369Z" fill="#0A0A0A"/>
<path d="M51.5954 133.436C51.5954 133.436 52.2748 119.527 50.98 122.195C48.6422 127.012 48.0313 142.543 48.0313 142.543L51.5954 133.436Z" fill="#0A0A0A"/>
<path d="M56.4807 221.503C56.4807 221.503 55.2102 228.077 49.0434 228.443C42.8766 228.81 44.2139 233.713 44.2139 233.713H67.7796V221.961L56.4807 221.503Z" fill="#2330E7"/>
<path d="M75.1357 101.577C75.1357 101.577 75.2401 101.092 75.3022 103.925C75.6673 120.643 68.8195 225.698 68.8195 225.698L53.3344 225.568L49.1887 100.897L75.1357 101.577Z" fill="#262626"/>
<path d="M30.0343 71.1531C30.3536 74.8983 32.6925 98.2628 32.9992 102.876H75.3166C75.5555 98.7153 75.8437 80.5229 76.7503 72.3871C77.6156 64.6235 79.3133 60.4557 78.069 58.1605C76.0355 54.4094 70.4786 52.5226 66.6897 52.0105C64.376 51.6978 60.8962 51.4736 60.8962 51.4736C60.8962 51.4736 60.6015 57.4233 53.5757 57.7543C44.0115 58.2047 44.6502 51.4736 44.6028 51.4736C41.1304 51.4736 34.5587 52.3029 32.0368 54.0146C26.3661 57.8637 29.3564 63.2166 30.0343 71.1529V71.1531Z" fill="#2330E7"/>
<path d="M32.541 56.5569L22.6868 66.7329L13.7129 63.1126L4.20142 86.6034L4.14253 86.7437C3.00817 89.5616 3.68528 92.9062 6.08069 95.0525C9.14301 97.7962 13.8537 97.5425 16.6025 94.4858L42.4367 65.7581L32.5407 56.5566L32.541 56.5569Z" fill="#2330E7"/>
<path d="M41.2172 53.4592C40.8948 52.9485 40.2072 52.8071 39.7065 53.1598C39.2372 53.4906 39.1479 54.1545 39.4542 54.6393L39.9441 55.3502L34.5576 51.9638C34.0899 51.6699 33.4719 51.8099 33.1775 52.2768C32.883 52.7437 33.0233 53.3605 33.491 53.6544L35.7341 55.0647C35.7283 55.0694 35.7234 55.0751 35.7187 55.0811C35.2085 54.8899 34.6039 55.1125 34.3671 55.6627C34.1645 56.1332 34.3592 56.6832 34.784 56.9706L35.0829 57.1725C35.0808 57.1845 35.0813 57.1968 35.0837 57.2086C34.6168 57.0296 34.0687 57.1981 33.7954 57.6498C33.4986 58.1407 33.6834 58.7845 34.159 59.1061L34.8952 59.604C34.8633 59.6059 34.8327 59.6213 34.8152 59.6511C34.8052 59.6675 34.8026 59.6858 34.8028 59.7036C34.366 59.6628 33.9195 59.8898 33.724 60.3442C33.5214 60.8147 33.7161 61.3646 34.1409 61.652L38.1272 64.3581C39.9295 65.5769 42.2927 65.5824 44.1005 64.3715L46.9461 62.4658L41.217 53.4595L41.2172 53.4592Z" fill="#FF9E85"/>
<g opacity="0.2">
<path d="M37.972 56.5822C37.9607 56.5799 37.9497 56.5757 37.9395 56.5694L35.7449 55.225C35.698 55.1963 35.6834 55.1349 35.7119 55.0881C35.7409 55.0411 35.8022 55.027 35.849 55.0554L38.0437 56.3999C38.0905 56.4286 38.1052 56.49 38.0767 56.5368C38.0542 56.5733 38.0118 56.5901 37.972 56.5822Z" fill="#0C0C0C"/>
<path d="M36.8779 58.3568C36.8664 58.3545 36.8551 58.3503 36.8447 58.3435L35.1279 57.2734C35.0814 57.2444 35.0672 57.183 35.0963 57.1362C35.1253 57.0894 35.1868 57.0753 35.2337 57.1046L36.9504 58.1747C36.997 58.2037 37.0111 58.2651 36.9821 58.3119C36.9596 58.3479 36.9174 58.3646 36.8779 58.3568Z" fill="#0C0C0C"/>
<path d="M35.704 60.2854C35.6933 60.2833 35.6828 60.2794 35.6729 60.2734L34.8502 59.7869C34.8028 59.7589 34.7871 59.6978 34.8152 59.6508C34.8434 59.6035 34.9044 59.5876 34.9515 59.6158L35.7742 60.1022C35.8215 60.1302 35.8372 60.1913 35.8092 60.2384C35.787 60.2757 35.7441 60.2932 35.704 60.2851V60.2854Z" fill="#0C0C0C"/>
</g>
<path d="M23.6764 66.7194H32.041C32.9621 66.7194 33.6531 65.8789 33.4732 64.9773L30.1638 48.3767C30.027 47.6901 29.4205 47.1977 28.7193 47.2037L20.5678 47.2721C19.6588 47.2797 18.9777 48.1055 19.1447 48.9975L22.2411 65.5296C22.3704 66.2193 22.9734 66.7194 23.6764 66.7194Z" fill="#262626"/>
<path d="M30.1193 57.4746C29.8356 57.0558 29.3425 56.9139 28.9122 57.0406C28.9091 57.0216 28.9054 57.002 28.891 56.9868C28.8648 56.961 28.8306 56.9581 28.7978 56.9657L29.4472 56.319C29.8615 55.9068 29.9233 55.2275 29.5325 54.793C29.1726 54.3931 28.5913 54.329 28.1582 54.5979C28.1582 54.5872 28.1498 54.5783 28.1464 54.5678L28.4136 54.3016C28.7834 53.9332 28.8732 53.3459 28.5803 52.9141C28.1864 52.3328 27.3881 52.2766 26.9159 52.7463L26.299 53.3606C26.2964 53.3569 26.2975 53.3517 26.2941 53.3483C26.2901 53.3436 26.2828 53.3449 26.2781 53.3412C26.5419 52.9248 26.4943 52.3683 26.1313 52.0046C25.7146 51.5286 24.9707 51.7614 24.5718 52.1585L20.8083 55.8383L20.923 55.6667L21.4559 54.311C21.6694 53.7673 21.4532 53.1205 20.9206 52.8791C20.3524 52.6217 19.6918 52.8942 19.4667 53.4666L16.351 61.1578C16.351 61.1578 22.897 65.886 24.4669 64.3232L29.9524 58.8624C30.3222 58.494 30.412 57.9064 30.1193 57.4746Z" fill="#FF9E85"/>
<g opacity="0.2">
<path d="M22.687 56.8286C22.7255 56.8665 22.7873 56.867 22.8263 56.8294L26.2919 53.4889C26.3315 53.4508 26.3325 53.3878 26.2943 53.3481C26.2613 53.3081 26.1927 53.3076 26.1532 53.3458L22.6876 56.6862C22.648 56.7243 22.647 56.7873 22.6852 56.827L22.687 56.8286Z" fill="#0C0C0C"/>
<path d="M24.1208 58.3947C24.1593 58.4326 24.2211 58.4331 24.2601 58.3955L28.1277 54.6673C28.1673 54.6292 28.1683 54.5662 28.1301 54.5265C28.095 54.4907 28.0288 54.486 27.989 54.5242L24.1213 58.2523C24.0818 58.2905 24.0808 58.3534 24.119 58.3931L24.1208 58.3947Z" fill="#0C0C0C"/>
<path d="M25.664 60.1004C25.7025 60.1383 25.7643 60.1388 25.8033 60.1012L28.8886 57.1276C28.9282 57.0894 28.9292 57.0264 28.891 56.9867C28.8515 56.9475 28.7897 56.9462 28.7499 56.9844L25.6646 59.958C25.625 59.9962 25.624 60.0591 25.6622 60.0988L25.664 60.1004Z" fill="#0C0C0C"/>
</g>
<path d="M15.2836 59.1099L27.2767 63.7817L18.1533 90.0744L4.11194 86.4147L15.2836 59.1099Z" fill="#2330E7"/>
<path d="M55.8117 94.7335C53.1247 94.7335 50.6424 93.2937 49.3128 90.9593L35.7579 65.7451L47.0469 58.543L55.6737 73.1238L64.9986 57.041L77.1073 65.9086L62.376 90.8418C61.0781 93.2195 58.5913 94.7086 55.8789 94.7329C55.8564 94.7329 55.8337 94.7332 55.8117 94.7332V94.7335Z" fill="#2330E7"/>
<path d="M55.8117 94.8325C53.0931 94.8325 50.5699 93.3671 49.2262 91.008L35.67 65.7916C35.6454 65.7457 35.6604 65.6887 35.7041 65.6607L46.993 58.4589C47.0158 58.4443 47.0435 58.4393 47.07 58.4461C47.0961 58.4524 47.1189 58.4691 47.1328 58.4924L55.6735 72.9274L62.0701 62.0097C62.0978 61.9619 62.1591 61.9464 62.2065 61.9741C62.2541 62.0018 62.2701 62.063 62.2423 62.1103L55.7599 73.174C55.7421 73.2043 55.7094 73.2231 55.674 73.2234C55.6387 73.2234 55.606 73.2048 55.5882 73.1745L47.0137 58.6823L35.8894 65.7791L49.4007 90.9121C50.7079 93.207 53.165 94.6337 55.8117 94.6337H55.8782C58.5526 94.6094 61.0088 93.1383 62.2884 90.7943L75.4812 68.3428C75.5095 68.2953 75.571 68.2796 75.6176 68.3073C75.665 68.335 75.6809 68.3961 75.6532 68.4434L62.4619 90.8922C61.149 93.2971 58.6262 94.808 55.8798 94.8325H55.8117Z" fill="#0C0C0C"/>
<path d="M58.8732 78.8747C58.8387 78.8747 58.8046 78.8564 58.7863 78.8242L55.5868 73.173C55.5599 73.1252 55.5766 73.0646 55.6245 73.0374C55.6719 73.0107 55.7334 73.0272 55.7604 73.075L58.9598 78.7263C58.9868 78.7741 58.97 78.8347 58.9221 78.8619C58.9064 78.8705 58.89 78.8747 58.8732 78.8747Z" fill="#0C0C0C"/>
<path d="M20.6979 83.5166C20.6869 83.5166 20.6762 83.5147 20.6652 83.5111C20.6131 83.493 20.5859 83.4363 20.6036 83.3844L27.3905 63.825C27.4088 63.773 27.4659 63.7461 27.5174 63.7636C27.5695 63.7817 27.5967 63.8384 27.5789 63.8903L20.7921 83.4497C20.7777 83.491 20.7392 83.5166 20.6979 83.5166Z" fill="#0C0C0C"/>
<path d="M30.525 79.1361C30.4735 79.1361 30.4298 79.0962 30.4258 79.0439L30.0322 73.6795C30.0283 73.6246 30.0696 73.5771 30.1246 73.5729C30.1751 73.5679 30.2269 73.61 30.2314 73.6649L30.625 79.0293C30.6289 79.0841 30.5876 79.1317 30.5326 79.1359C30.5303 79.1359 30.5274 79.1361 30.525 79.1361Z" fill="#0C0C0C"/>
<path d="M216.323 233.992H16.6535C16.5436 233.992 16.4541 233.903 16.4541 233.793C16.4541 233.683 16.5434 233.594 16.6535 233.594H216.323C216.434 233.594 216.523 233.683 216.523 233.793C216.523 233.903 216.434 233.992 216.323 233.992Z" fill="#292A2E"/>
<path d="M163.734 16.1643H86.9748C80.6249 16.1643 75.4772 21.3025 75.4772 27.6408V207.754C75.4772 214.092 80.6249 219.231 86.9748 219.231H163.734C170.084 219.231 175.232 214.092 175.232 207.754V27.6408C175.232 21.3025 170.084 16.1643 163.734 16.1643Z" fill="#292A2E"/>
<path d="M163.698 19.7483H87.0112C82.6509 19.7483 79.1161 23.2765 79.1161 27.6289V207.499C79.1161 211.851 82.6509 215.379 87.0112 215.379H163.698C168.058 215.379 171.593 211.851 171.593 207.499V27.6289C171.593 23.2765 168.058 19.7483 163.698 19.7483Z" fill="white"/>
<path d="M106.415 18.2664H144.295V22.1787C144.295 24.5138 142.395 26.4095 140.056 26.4095H110.653C108.314 26.4095 106.415 24.5138 106.415 22.1787V18.2664Z" fill="#292A2E"/>
<path d="M148.685 63.5113H90.8645L83.5222 69.0006V40.0712C83.5222 37.74 85.4154 35.8503 87.7508 35.8503H148.685C151.02 35.8503 152.914 37.74 152.914 40.0712V59.2904C152.914 61.6216 151.02 63.5113 148.685 63.5113Z" fill="#2330E7"/>
<path opacity="0.49" d="M152.914 63.5113H90.8648L83.5226 69.0005V35.8506H152.914V63.5113Z" fill="white"/>
<path d="M147.731 42.0192H88.7051C88.6036 42.0192 88.5211 41.9369 88.5211 41.8355C88.5211 41.7342 88.6033 41.6519 88.7051 41.6519H147.731C147.832 41.6519 147.915 41.7342 147.915 41.8355C147.915 41.9369 147.833 42.0192 147.731 42.0192Z" fill="white"/>
<path d="M147.731 47.5277H88.7051C88.6036 47.5277 88.5211 47.4454 88.5211 47.3441C88.5211 47.2427 88.6033 47.1604 88.7051 47.1604H147.731C147.832 47.1604 147.915 47.2427 147.915 47.3441C147.915 47.4454 147.833 47.5277 147.731 47.5277Z" fill="white"/>
<path d="M147.731 53.0365H88.7051C88.6036 53.0365 88.5211 52.9542 88.5211 52.8529C88.5211 52.7515 88.6033 52.6692 88.7051 52.6692H147.731C147.832 52.6692 147.915 52.7515 147.915 52.8529C147.915 52.9542 147.833 53.0365 147.731 53.0365Z" fill="white"/>
<path d="M118.298 58.5451H88.7051C88.6036 58.5451 88.5211 58.4628 88.5211 58.3614C88.5211 58.26 88.6033 58.1777 88.7051 58.1777H118.298C118.4 58.1777 118.482 58.26 118.482 58.3614C118.482 58.4628 118.4 58.5451 118.298 58.5451Z" fill="white"/>
<path d="M110.458 181.336H159.08L166.422 186.826V163.405C166.422 161.074 164.529 159.184 162.194 159.184H110.458C108.122 159.184 106.229 161.074 106.229 163.405V177.116C106.229 179.447 108.122 181.336 110.458 181.336Z" fill="#2330E7"/>
<path opacity="0.11" d="M110.458 181.336H159.08L166.422 186.826V163.405C166.422 161.074 164.529 159.184 162.194 159.184H110.458C108.122 159.184 106.229 161.074 106.229 163.405V177.116C106.229 179.447 108.122 181.336 110.458 181.336Z" fill="white"/>
<path d="M161.24 165.353H111.412C111.31 165.353 111.228 165.271 111.228 165.169C111.228 165.068 111.31 164.986 111.412 164.986H161.24C161.341 164.986 161.424 165.068 161.424 165.169C161.424 165.271 161.342 165.353 161.24 165.353Z" fill="white"/>
<path d="M161.24 170.861H111.412C111.31 170.861 111.228 170.779 111.228 170.678C111.228 170.576 111.31 170.494 111.412 170.494H161.24C161.341 170.494 161.424 170.576 161.424 170.678C161.424 170.779 161.342 170.861 161.24 170.861Z" fill="white"/>
<path d="M161.24 176.37H131.647C131.545 176.37 131.463 176.288 131.463 176.187C131.463 176.085 131.545 176.003 131.647 176.003H161.24C161.341 176.003 161.424 176.085 161.424 176.187C161.424 176.288 161.342 176.37 161.24 176.37Z" fill="white"/>
<path d="M110.458 105.801H159.08L166.422 111.29V82.644C166.422 80.3128 164.529 78.4231 162.194 78.4231H110.458C108.122 78.4231 106.229 80.3128 106.229 82.644V101.58C106.229 103.911 108.122 105.801 110.458 105.801Z" fill="#2330E7"/>
<path opacity="0.11" d="M110.458 105.801H159.08L166.422 111.29V82.644C166.422 80.3128 164.529 78.4231 162.194 78.4231H110.458C108.122 78.4231 106.229 80.3128 106.229 82.644V101.58C106.229 103.911 108.122 105.801 110.458 105.801Z" fill="white"/>
<path d="M161.24 89.817H111.412C111.31 89.817 111.228 89.735 111.228 89.6334C111.228 89.5317 111.31 89.4497 111.412 89.4497H161.24C161.341 89.4497 161.424 89.5317 161.424 89.6334C161.424 89.735 161.342 89.817 161.24 89.817Z" fill="white"/>
<path d="M161.24 84.5919H111.412C111.31 84.5919 111.228 84.5099 111.228 84.4083C111.228 84.3066 111.31 84.2246 111.412 84.2246H161.24C161.341 84.2246 161.424 84.3066 161.424 84.4083C161.424 84.5099 161.342 84.5919 161.24 84.5919Z" fill="white"/>
<path d="M161.24 95.3256H111.412C111.31 95.3256 111.228 95.2435 111.228 95.1419C111.228 95.0403 111.31 94.9583 111.412 94.9583H161.24C161.341 94.9583 161.424 95.0403 161.424 95.1419C161.424 95.2435 161.342 95.3256 161.24 95.3256Z" fill="white"/>
<path d="M161.24 100.834H131.647C131.545 100.834 131.463 100.752 131.463 100.651C131.463 100.549 131.545 100.467 131.647 100.467H161.24C161.341 100.467 161.424 100.549 161.424 100.651C161.424 100.752 161.342 100.834 161.24 100.834Z" fill="white"/>
<path d="M148.685 144.383H90.8645L83.5222 149.872V125.901C83.5222 123.569 85.4154 121.68 87.7508 121.68H148.685C151.02 121.68 152.914 123.569 152.914 125.901V140.162C152.914 142.493 151.02 144.383 148.685 144.383Z" fill="#2330E7"/>
<path opacity="0.49" d="M152.914 144.383H90.8648L83.5226 149.872V121.68H152.914V144.383Z" fill="white"/>
<path d="M147.731 127.849H88.7051C88.6036 127.849 88.5211 127.766 88.5211 127.665C88.5211 127.563 88.6033 127.481 88.7051 127.481H147.731C147.832 127.481 147.915 127.563 147.915 127.665C147.915 127.766 147.833 127.849 147.731 127.849Z" fill="white"/>
<path d="M147.731 133.357H88.7051C88.6036 133.357 88.5211 133.275 88.5211 133.173C88.5211 133.072 88.6033 132.99 88.7051 132.99H147.731C147.832 132.99 147.915 133.072 147.915 133.173C147.915 133.275 147.833 133.357 147.731 133.357Z" fill="white"/>
<path d="M118.298 138.972H88.7051C88.6036 138.972 88.5211 138.889 88.5211 138.788C88.5211 138.687 88.6033 138.604 88.7051 138.604H118.298C118.4 138.604 118.482 138.687 118.482 138.788C118.482 138.889 118.4 138.972 118.298 138.972Z" fill="white"/>
<path d="M163.964 206.96H86.3492C84.0925 206.96 82.263 205.134 82.263 202.881V198.792C82.263 196.54 84.0925 194.713 86.3495 194.713H163.964C166.221 194.713 168.05 196.54 168.05 198.792V202.881C168.05 205.134 166.221 206.96 163.964 206.96ZM86.3492 195.081C84.2956 195.081 82.631 196.742 82.631 198.792V202.881C82.631 204.931 84.2956 206.593 86.3492 206.593H163.964C166.017 206.593 167.682 204.931 167.682 202.881V198.792C167.682 196.743 166.017 195.081 163.964 195.081H86.3492Z" fill="#2330E7"/>
<path d="M157.377 198.199L158.803 200.576L164.324 198.182L159.347 201.484L161.047 204.316L165.365 197.688L157.377 198.199Z" fill="#2330E7"/>
</svg>
