<svg width="300" height="176" viewBox="0 0 300 176" fill="none" xmlns="http://www.w3.org/2000/svg">
<path d="M168.759 9.54117C113.653 -13.2466 47.5593 25.9313 32.2612 58.2468C-4.47236 135.844 59.7218 171.657 87.9617 158.557C99.7512 153.088 109.381 143.749 118.689 134.664C132.453 121.227 151.389 113.256 170.595 112.813C185.548 112.469 200.43 116.492 215.341 115.31C230.251 114.129 243.423 93.5109 243.018 78.5197C242.401 55.6386 227.851 33.977 168.759 9.54089L168.759 9.54117Z" fill="#DADCFB"/>
<path d="M21.6161 110.363L21.0573 110.424L27.9575 173.647L28.5163 173.586L21.6161 110.363Z" fill="#292A2E"/>
<path d="M39.4877 137.963L36.093 171.635L36.6523 171.691L40.0469 138.02L39.4877 137.963Z" fill="#292A2E"/>
<path d="M45.3248 167.565H20.1365V175.761H45.3248V167.565Z" fill="#292A2E"/>
<path opacity="0.2" d="M45.3248 167.565H20.1365V175.761H45.3248V167.565Z" fill="white"/>
<path d="M60.5097 152.474C65.2812 146.116 63.0064 136.327 55.4287 130.611C47.8511 124.894 37.84 125.414 33.0685 131.773C28.2969 138.131 30.5718 147.92 38.1494 153.637C45.7271 159.353 55.7381 158.833 60.5097 152.474Z" fill="#D1D1DB"/>
<path opacity="0.2" d="M60.5097 152.474C65.2812 146.116 63.0064 136.327 55.4287 130.611C47.8511 124.894 37.84 125.414 33.0685 131.773C28.2969 138.131 30.5718 147.92 38.1494 153.637C45.7271 159.353 55.7381 158.833 60.5097 152.474Z" fill="white"/>
<path opacity="0.5" d="M60.5088 152.475C60.1842 152.909 59.8345 153.315 59.4624 153.691C54.2101 157.055 46.457 156.526 40.3064 151.885C32.7296 146.169 30.4554 136.381 35.2274 130.022C35.5521 129.589 35.9014 129.185 36.2713 128.807C41.5265 125.44 49.2767 125.972 55.4299 130.61C63.0067 136.328 65.2808 146.116 60.5088 152.475Z" fill="white"/>
<path d="M25.3574 128.349C32.8642 122.539 34.9045 112.575 29.9146 106.094C24.9247 99.6125 14.7941 99.068 7.28736 104.878C-0.21939 110.688 -2.25968 120.652 2.73024 127.133C7.72015 133.614 17.8507 134.159 25.3574 128.349Z" fill="#D1D1DB"/>
<path opacity="0.2" d="M22.9791 126.683C17.1658 131.185 9.77758 131.871 4.42179 128.94C3.81046 128.4 3.24439 127.798 2.73115 127.132C-2.25981 120.652 -0.21952 110.687 7.28673 104.879C13.1004 100.379 20.4886 99.6904 25.8416 102.619C26.4554 103.158 27.0212 103.764 27.5344 104.43C32.5254 110.909 30.4854 120.874 22.9791 126.683Z" fill="white"/>
<path d="M200.264 7.5083H51.0876C46.1409 7.5083 42.1307 11.529 42.1307 16.4888V134.191C42.1307 139.151 46.1409 143.171 51.0876 143.171H200.264C205.21 143.171 209.22 139.151 209.22 134.191V16.4888C209.22 11.529 205.21 7.5083 200.264 7.5083Z" fill="white"/>
<path d="M200.264 143.453H51.0879C45.9941 143.453 41.85 139.298 41.85 134.191V16.4888C41.85 11.3816 45.9941 7.22656 51.0879 7.22656H200.264C205.358 7.22656 209.502 11.3816 209.502 16.4888V134.191C209.502 139.298 205.358 143.453 200.264 143.453ZM51.0879 7.79018C46.3041 7.79018 42.4121 11.6924 42.4121 16.4888V134.191C42.4121 138.987 46.3041 142.89 51.0879 142.89H200.264C205.048 142.89 208.94 138.987 208.94 134.191V16.4888C208.94 11.6924 205.048 7.79018 200.264 7.79018H51.0879Z" fill="#292A2E"/>
<path opacity="0.7" d="M196.125 31.8967H186.966C185.035 31.8967 183.47 33.4659 183.47 35.4016V44.5855C183.47 46.5212 185.035 48.0904 186.966 48.0904H196.125C198.056 48.0904 199.621 46.5212 199.621 44.5855V35.4016C199.621 33.4659 198.056 31.8967 196.125 31.8967Z" fill="#2330E7"/>
<path opacity="0.7" d="M196.41 52.3508H187.32C185.37 52.3508 183.789 53.9358 183.789 55.8909V65.0044C183.789 66.9596 185.37 68.5445 187.32 68.5445H196.41C198.36 68.5445 199.94 66.9596 199.94 65.0044V55.8909C199.94 53.9358 198.36 52.3508 196.41 52.3508Z" fill="#2330E7"/>
<path opacity="0.7" d="M196.41 75.1318H187.32C185.37 75.1318 183.789 76.7168 183.789 78.6719V87.7854C183.789 89.7406 185.37 91.3255 187.32 91.3255H196.41C198.36 91.3255 199.94 89.7406 199.94 87.7854V78.6719C199.94 76.7168 198.36 75.1318 196.41 75.1318Z" fill="#2330E7"/>
<path opacity="0.7" d="M196.09 96.7473H187.001C185.051 96.7473 183.47 98.3323 183.47 100.287V109.401C183.47 111.356 185.051 112.941 187.001 112.941H196.09C198.04 112.941 199.621 111.356 199.621 109.401V100.287C199.621 98.3323 198.04 96.7473 196.09 96.7473Z" fill="#2330E7"/>
<g opacity="0.2">
<path d="M130.266 31.8967H121.106C119.176 31.8967 117.61 33.4659 117.61 35.4016V44.5855C117.61 46.5212 119.176 48.0904 121.106 48.0904H130.266C132.197 48.0904 133.762 46.5212 133.762 44.5855V35.4016C133.762 33.4659 132.197 31.8967 130.266 31.8967Z" fill="#2330E7"/>
<path d="M108.313 31.8967H99.1529C97.2223 31.8967 95.6572 33.4659 95.6572 35.4016V44.5855C95.6572 46.5212 97.2223 48.0904 99.1529 48.0904H108.313C110.243 48.0904 111.808 46.5212 111.808 44.5855V35.4016C111.808 33.4659 110.243 31.8967 108.313 31.8967Z" fill="#2330E7"/>
<path d="M152.219 31.8967H143.059C141.128 31.8967 139.563 33.4659 139.563 35.4016V44.5855C139.563 46.5212 141.128 48.0904 143.059 48.0904H152.219C154.149 48.0904 155.714 46.5212 155.714 44.5855V35.4016C155.714 33.4659 154.149 31.8967 152.219 31.8967Z" fill="#2330E7"/>
<path d="M174.172 31.8967H165.012C163.082 31.8967 161.517 33.4659 161.517 35.4016V44.5855C161.517 46.5212 163.082 48.0904 165.012 48.0904H174.172C176.103 48.0904 177.668 46.5212 177.668 44.5855V35.4016C177.668 33.4659 176.103 31.8967 174.172 31.8967Z" fill="#2330E7"/>
<path d="M130.55 52.3508H121.46C119.51 52.3508 117.93 53.9358 117.93 55.8909V65.0044C117.93 66.9596 119.51 68.5445 121.46 68.5445H130.55C132.5 68.5445 134.081 66.9596 134.081 65.0044V55.8909C134.081 53.9358 132.5 52.3508 130.55 52.3508Z" fill="#2330E7"/>
<path d="M152.503 52.3508H143.414C141.464 52.3508 139.883 53.9358 139.883 55.8909V65.0044C139.883 66.9596 141.464 68.5445 143.414 68.5445H152.503C154.453 68.5445 156.034 66.9596 156.034 65.0044V55.8909C156.034 53.9358 154.453 52.3508 152.503 52.3508Z" fill="#2330E7"/>
<path d="M174.457 52.3508H165.367C163.417 52.3508 161.836 53.9358 161.836 55.8909V65.0044C161.836 66.9596 163.417 68.5445 165.367 68.5445H174.457C176.407 68.5445 177.987 66.9596 177.987 65.0044V55.8909C177.987 53.9358 176.407 52.3508 174.457 52.3508Z" fill="#2330E7"/>
<path d="M64.6909 52.3508H55.6014C53.6514 52.3508 52.0706 53.9358 52.0706 55.8909V65.0044C52.0706 66.9596 53.6514 68.5445 55.6014 68.5445H64.6909C66.6409 68.5445 68.2217 66.9596 68.2217 65.0044V55.8909C68.2217 53.9358 66.6409 52.3508 64.6909 52.3508Z" fill="#2330E7"/>
<path d="M86.6439 52.3508H77.5544C75.6043 52.3508 74.0236 53.9358 74.0236 55.8909V65.0044C74.0236 66.9596 75.6043 68.5445 77.5544 68.5445H86.6439C88.5939 68.5445 90.1747 66.9596 90.1747 65.0044V55.8909C90.1747 53.9358 88.5939 52.3508 86.6439 52.3508Z" fill="#2330E7"/>
<path d="M108.597 52.3508H99.5076C97.5576 52.3508 95.9768 53.9358 95.9768 55.8909V65.0044C95.9768 66.9596 97.5576 68.5445 99.5076 68.5445H108.597C110.547 68.5445 112.128 66.9596 112.128 65.0044V55.8909C112.128 53.9358 110.547 52.3508 108.597 52.3508Z" fill="#2330E7"/>
<path d="M130.55 75.1318H121.46C119.51 75.1318 117.93 76.7168 117.93 78.6719V87.7854C117.93 89.7406 119.51 91.3255 121.46 91.3255H130.55C132.5 91.3255 134.081 89.7406 134.081 87.7854V78.6719C134.081 76.7168 132.5 75.1318 130.55 75.1318Z" fill="#2330E7"/>
<path d="M152.503 75.1318H143.414C141.464 75.1318 139.883 76.7168 139.883 78.6719V87.7854C139.883 89.7406 141.464 91.3255 143.414 91.3255H152.503C154.453 91.3255 156.034 89.7406 156.034 87.7854V78.6719C156.034 76.7168 154.453 75.1318 152.503 75.1318Z" fill="#2330E7"/>
<path d="M174.457 75.1318H165.367C163.417 75.1318 161.836 76.7168 161.836 78.6719V87.7854C161.836 89.7406 163.417 91.3255 165.367 91.3255H174.457C176.407 91.3255 177.987 89.7406 177.987 87.7854V78.6719C177.987 76.7168 176.407 75.1318 174.457 75.1318Z" fill="#2330E7"/>
<path d="M64.6909 75.1318H55.6014C53.6514 75.1318 52.0706 76.7168 52.0706 78.6719V87.7854C52.0706 89.7406 53.6514 91.3255 55.6014 91.3255H64.6909C66.6409 91.3255 68.2217 89.7406 68.2217 87.7854V78.6719C68.2217 76.7168 66.6409 75.1318 64.6909 75.1318Z" fill="#2330E7"/>
<path d="M86.6439 75.1318H77.5544C75.6043 75.1318 74.0236 76.7168 74.0236 78.6719V87.7854C74.0236 89.7406 75.6043 91.3255 77.5544 91.3255H86.6439C88.5939 91.3255 90.1747 89.7406 90.1747 87.7854V78.6719C90.1747 76.7168 88.5939 75.1318 86.6439 75.1318Z" fill="#2330E7"/>
<path d="M108.597 75.1318H99.5076C97.5576 75.1318 95.9768 76.7168 95.9768 78.6719V87.7854C95.9768 89.7406 97.5576 91.3255 99.5076 91.3255H108.597C110.547 91.3255 112.128 89.7406 112.128 87.7854V78.6719C112.128 76.7168 110.547 75.1318 108.597 75.1318Z" fill="#2330E7"/>
<path d="M130.55 97.0676H121.46C119.51 97.0676 117.93 98.6526 117.93 100.608V109.721C117.93 111.676 119.51 113.261 121.46 113.261H130.55C132.5 113.261 134.081 111.676 134.081 109.721V100.608C134.081 98.6526 132.5 97.0676 130.55 97.0676Z" fill="#2330E7"/>
<path d="M152.184 96.7473H143.094C141.144 96.7473 139.563 98.3323 139.563 100.287V109.401C139.563 111.356 141.144 112.941 143.094 112.941H152.184C154.134 112.941 155.714 111.356 155.714 109.401V100.287C155.714 98.3323 154.134 96.7473 152.184 96.7473Z" fill="#2330E7"/>
<path d="M174.137 96.7473H165.047C163.097 96.7473 161.517 98.3323 161.517 100.287V109.401C161.517 111.356 163.097 112.941 165.047 112.941H174.137C176.087 112.941 177.668 111.356 177.668 109.401V100.287C177.668 98.3323 176.087 96.7473 174.137 96.7473Z" fill="#2330E7"/>
<path d="M64.6909 97.0676H55.6014C53.6514 97.0676 52.0706 98.6526 52.0706 100.608V109.721C52.0706 111.676 53.6514 113.261 55.6014 113.261H64.6909C66.6409 113.261 68.2217 111.676 68.2217 109.721V100.608C68.2217 98.6526 66.6409 97.0676 64.6909 97.0676Z" fill="#2330E7"/>
<path d="M86.6439 97.0676H77.5544C75.6043 97.0676 74.0236 98.6526 74.0236 100.608V109.721C74.0236 111.676 75.6043 113.261 77.5544 113.261H86.6439C88.5939 113.261 90.1747 111.676 90.1747 109.721V100.608C90.1747 98.6526 88.5939 97.0676 86.6439 97.0676Z" fill="#2330E7"/>
<path d="M108.597 97.0676H99.5076C97.5576 97.0676 95.9768 98.6526 95.9768 100.608V109.721C95.9768 111.676 97.5576 113.261 99.5076 113.261H108.597C110.547 113.261 112.128 111.676 112.128 109.721V100.608C112.128 98.6526 110.547 97.0676 108.597 97.0676Z" fill="#2330E7"/>
<path d="M130.231 116.936H121.141C119.191 116.936 117.61 118.521 117.61 120.476V129.59C117.61 131.545 119.191 133.13 121.141 133.13H130.231C132.181 133.13 133.762 131.545 133.762 129.59V120.476C133.762 118.521 132.181 116.936 130.231 116.936Z" fill="#2330E7"/>
<path d="M64.3713 116.936H55.2818C53.3318 116.936 51.751 118.521 51.751 120.476V129.59C51.751 131.545 53.3318 133.13 55.2818 133.13H64.3713C66.3213 133.13 67.9021 131.545 67.9021 129.59V120.476C67.9021 118.521 66.3213 116.936 64.3713 116.936Z" fill="#2330E7"/>
<path d="M86.3245 116.936H77.235C75.285 116.936 73.7042 118.521 73.7042 120.476V129.59C73.7042 131.545 75.285 133.13 77.235 133.13H86.3245C88.2746 133.13 89.8553 131.545 89.8553 129.59V120.476C89.8553 118.521 88.2746 116.936 86.3245 116.936Z" fill="#2330E7"/>
<path d="M108.278 116.936H99.188C97.238 116.936 95.6572 118.521 95.6572 120.476V129.59C95.6572 131.545 97.238 133.13 99.188 133.13H108.278C110.228 133.13 111.808 131.545 111.808 129.59V120.476C111.808 118.521 110.228 116.936 108.278 116.936Z" fill="#2330E7"/>
</g>
<path d="M209.22 16.4895V22.2466H42.1316V16.4895C42.1316 11.5285 46.1396 7.50708 51.0879 7.50708H200.264C205.21 7.50708 209.22 11.5282 209.22 16.4895Z" fill="#292A2E"/>
<path d="M72.4753 7.22647C72.4753 3.24195 75.7085 0 79.6828 0C83.6571 0 86.89 3.24167 86.89 7.22647C86.89 11.2113 83.6569 14.4527 79.6828 14.4527C79.3467 14.4527 79.074 14.1793 79.074 13.8423C79.074 13.5052 79.3467 13.2319 79.6828 13.2319C82.9857 13.2319 85.6727 10.5377 85.6727 7.22619C85.6727 3.91463 82.9857 1.22052 79.6828 1.22052C76.38 1.22052 73.6929 3.91463 73.6929 7.22619" fill="#E5E5E5"/>
<path d="M109.27 7.22647C109.27 3.24195 112.503 0 116.477 0C120.451 0 123.684 3.24167 123.684 7.22647C123.684 11.2113 120.451 14.4527 116.477 14.4527C116.141 14.4527 115.868 14.1793 115.868 13.8423C115.868 13.5052 116.141 13.2319 116.477 13.2319C119.78 13.2319 122.467 10.5377 122.467 7.22619C122.467 3.91463 119.78 1.22052 116.477 1.22052C113.174 1.22052 110.487 3.91463 110.487 7.22619" fill="#E5E5E5"/>
<path d="M146.064 7.22647C146.064 3.24195 149.297 0 153.271 0C157.245 0 160.479 3.24167 160.479 7.22647C160.479 11.2113 157.246 14.4527 153.271 14.4527C152.935 14.4527 152.663 14.1793 152.663 13.8423C152.663 13.5052 152.935 13.2319 153.271 13.2319C156.574 13.2319 159.261 10.5377 159.261 7.22619C159.261 3.91463 156.574 1.22052 153.271 1.22052C149.969 1.22052 147.282 3.91463 147.282 7.22619" fill="#E5E5E5"/>
<path d="M164.461 7.22647C164.461 3.24195 167.694 0 171.669 0C175.643 0 178.876 3.24167 178.876 7.22647C178.876 11.2113 175.643 14.4527 171.669 14.4527C171.333 14.4527 171.06 14.1793 171.06 13.8423C171.06 13.5052 171.333 13.2319 171.669 13.2319C174.972 13.2319 177.659 10.5377 177.659 7.22619C177.659 3.91463 174.972 1.22052 171.669 1.22052C168.366 1.22052 165.679 3.91463 165.679 7.22619" fill="#E5E5E5"/>
<path d="M54.0779 7.22647C54.0779 3.24195 57.311 0 61.2851 0C65.2591 0 68.4926 3.24167 68.4926 7.22647C68.4926 11.2113 65.2594 14.4527 61.2851 14.4527C60.9489 14.4527 60.6763 14.1793 60.6763 13.8423C60.6763 13.5052 60.9489 13.2319 61.2851 13.2319C64.5879 13.2319 67.275 10.5377 67.275 7.22619C67.275 3.91463 64.5879 1.22052 61.2851 1.22052C57.9822 1.22052 55.2952 3.91463 55.2952 7.22619" fill="#E5E5E5"/>
<path d="M90.8724 7.22647C90.8724 3.24195 94.1056 0 98.0796 0C102.054 0 105.287 3.24167 105.287 7.22647C105.287 11.2113 102.054 14.4527 98.0796 14.4527C97.7435 14.4527 97.4708 14.1793 97.4708 13.8423C97.4708 13.5052 97.7435 13.2319 98.0796 13.2319C101.382 13.2319 104.07 10.5377 104.07 7.22619C104.07 3.91463 101.382 1.22052 98.0796 1.22052C94.7768 1.22052 92.0898 3.91463 92.0898 7.22619" fill="#E5E5E5"/>
<path d="M127.667 7.22647C127.667 3.24195 130.9 0 134.874 0C138.849 0 142.082 3.24167 142.082 7.22647C142.082 11.2113 138.849 14.4527 134.874 14.4527C134.538 14.4527 134.266 14.1793 134.266 13.8423C134.266 13.5052 134.538 13.2319 134.874 13.2319C138.177 13.2319 140.864 10.5377 140.864 7.22619C140.864 3.91463 138.177 1.22052 134.874 1.22052C131.572 1.22052 128.885 3.91463 128.885 7.22619" fill="#E5E5E5"/>
<path d="M182.859 7.22647C182.859 3.24195 186.092 0 190.066 0C194.04 0 197.273 3.24167 197.273 7.22647C197.273 11.2113 194.04 14.4527 190.066 14.4527C189.73 14.4527 189.457 14.1793 189.457 13.8423C189.457 13.5052 189.73 13.2319 190.066 13.2319C193.369 13.2319 196.056 10.5377 196.056 7.22619C196.056 3.91463 193.369 1.22052 190.066 1.22052C186.763 1.22052 184.076 3.91463 184.076 7.22619" fill="#E5E5E5"/>
<path d="M78.6243 109.296C78.5987 109.296 78.5732 109.295 78.5473 109.293C78.309 109.271 78.0908 109.15 77.9458 108.959L75.3732 105.566C75.0882 105.191 75.161 104.655 75.5359 104.369C75.9106 104.083 76.4455 104.156 76.7302 104.532L78.7384 107.181L86.4459 100.127C86.7936 99.8088 87.3327 99.8335 87.65 100.182C87.9674 100.53 87.9426 101.071 87.5952 101.389L79.1988 109.073C79.0411 109.217 78.836 109.296 78.6243 109.296Z" fill="#2330E7"/>
<path d="M108.074 118.728H99.3921C98.3162 118.728 97.444 119.602 97.444 120.681V129.385C97.444 130.464 98.3162 131.339 99.3921 131.339H108.074C109.15 131.339 110.022 130.464 110.022 129.385V120.681C110.022 119.602 109.15 118.728 108.074 118.728Z" fill="#2330E7"/>
<path d="M164.608 45.8764C164.396 45.8764 164.183 45.7972 164.018 45.638C163.679 45.3111 163.668 44.77 163.994 44.4299L173.899 34.0951C174.225 33.7546 174.765 33.7439 175.104 34.0708C175.443 34.3977 175.454 34.9388 175.128 35.2789L165.223 45.6138C165.056 45.7885 164.832 45.8764 164.608 45.8764Z" fill="#0A0A0A"/>
<path d="M174.715 45.6742C174.502 45.6742 174.289 45.5951 174.124 45.4358L163.817 35.5051C163.477 35.1782 163.467 34.6371 163.793 34.2967C164.119 33.9566 164.658 33.9459 164.998 34.2728L175.305 44.2035C175.645 44.5304 175.655 45.0715 175.329 45.4119C175.162 45.5863 174.939 45.6742 174.715 45.6742Z" fill="#0A0A0A"/>
<path d="M267.992 63.1159C267.992 63.1159 267.889 74.2976 269.743 77.7577C275.08 87.7188 276.37 95.348 270.08 100.615C263.79 105.882 225.895 103.598 223.829 90.4532C222.089 79.3868 227.348 78.5363 229.168 69.6103C229.992 65.5714 232.092 57.1255 232.092 57.1255" fill="#0A0A0A"/>
<path d="M234.602 89.7219C234.668 89.7126 235.509 101.803 249.516 100.616C259.213 99.7952 262.575 89.4398 262.798 89.4378C261.749 89.2247 259.984 88.9173 259.518 88.673C257.982 87.8642 256.083 87.0255 255.563 84.0552C255.263 82.3432 255.662 73.5659 255.497 71.8325L240.633 75.307C240.876 78.9691 242.413 87.4499 237.321 89.0018C236.474 89.2586 235.561 89.4958 234.602 89.7221L234.602 89.7219Z" fill="#FF9E85"/>
<path opacity="0.22" d="M240.52 85.4993C240.725 84.8222 240.845 84.2337 240.946 83.1772C241.128 81.2877 241.005 79.5534 240.798 77.787C243.803 77.357 246.68 76.0607 248.996 74.0928C249.282 75.1143 250.846 79.5748 250.434 80.5522C249.655 82.3997 245.942 85.4478 240.52 85.4991L240.52 85.4993Z" fill="#0C0C0C"/>
<path d="M242.114 81.7339C247.94 82.6695 254.406 80.6929 256.462 72.9645L259.582 66.0881C261.638 58.3597 259.256 51.0115 251.999 49.0704C244.741 47.129 238.65 49.1312 236.593 56.8596C236.593 56.8596 235.35 61.2764 235.098 62.783C234.146 68.464 233.274 80.3141 242.114 81.7339Z" fill="#FF9E85"/>
<path d="M236.433 61.4311C236.442 61.6873 237.398 61.7316 238.683 61.6253C239.968 61.5191 241.11 61.3649 241.086 61.0465C241.056 60.6443 239.985 60.4048 238.7 60.511C237.415 60.6173 236.42 61.0282 236.433 61.4311Z" fill="#0A0A0A"/>
<path d="M265.289 68.9884L256.833 70.6674C251.985 68.2703 253.059 56.1048 253.059 56.1048C253.059 56.1048 246.553 61.5872 232.092 57.1253C232.092 57.1253 236.507 37.4298 257.797 45.0181C264.663 47.4651 269.122 55.5702 267.799 64.9858C266.872 71.5841 265.289 68.9881 265.289 68.9881V68.9884Z" fill="#0A0A0A"/>
<path d="M256.649 75.2953C258.855 75.8851 261.216 75.2587 262.093 71.9274C262.675 69.7143 260.985 67.8772 258.78 67.2871L257.249 68.4648L254.753 74.7878L256.649 75.295L256.649 75.2953Z" fill="#FF9E85"/>
<path d="M238.837 63.7789C238.87 63.3277 238.532 62.9349 238.082 62.9016C237.632 62.8683 237.24 63.2071 237.207 63.6583C237.174 64.1096 237.512 64.5023 237.962 64.5356C238.412 64.5689 238.804 64.2302 238.837 63.7789Z" fill="#0A0A0A"/>
<path d="M242.272 71.1378C242.437 71.1499 242.588 71.0355 242.617 70.869C242.65 70.6909 242.531 70.5204 242.354 70.4885L240.641 70.18L241.958 66.8016C242.023 66.6331 241.94 66.4431 241.772 66.3772C241.604 66.3115 241.414 66.3947 241.348 66.5632L239.887 70.3127C239.852 70.404 239.859 70.5066 239.907 70.592C239.954 70.6774 240.038 70.7371 240.134 70.7546L242.238 71.1339C242.249 71.1359 242.261 71.1373 242.272 71.1381L242.272 71.1378Z" fill="#0A0A0A"/>
<path d="M242.919 74.8256C245.873 75.0443 246.884 73.3193 246.93 73.2381C247.018 73.0806 246.963 72.8808 246.806 72.7917C246.65 72.703 246.451 72.7579 246.362 72.914C246.319 72.9873 245.288 74.6787 242.065 74.0486C241.885 74.0125 241.716 74.1301 241.682 74.3076C241.647 74.4851 241.763 74.6573 241.94 74.692C242.287 74.7599 242.614 74.8033 242.918 74.8258L242.919 74.8256Z" fill="#0A0A0A"/>
<path d="M246.342 61.9925C246.246 62.2301 247.103 62.6595 248.32 63.0851C249.537 63.5106 250.644 63.8344 250.751 63.5337C250.886 63.1538 250.004 62.4992 248.786 62.0737C247.569 61.6481 246.494 61.6188 246.342 61.9925Z" fill="#0A0A0A"/>
<path d="M246.97 64.9039C247.003 64.4527 246.665 64.0599 246.215 64.0266C245.765 63.9933 245.374 64.3321 245.34 64.7833C245.307 65.2346 245.645 65.6273 246.095 65.6606C246.545 65.6939 246.937 65.3552 246.97 64.9039Z" fill="#0A0A0A"/>
<path d="M256.143 64.0874C256.101 64.7756 254.19 67.1191 254.383 67.7811C254.686 68.8252 256.143 70.58 256.833 70.6677C258.047 70.8218 257.149 68.5871 258.723 67.5165C258.963 67.5139 259.207 67.5289 259.451 67.5799C260.432 67.7709 261.248 68.3292 261.786 69.0847L261.913 65.9603" fill="#0A0A0A"/>
<path d="M278.495 160.419L280.998 175.718H218.573L220.906 160.327L278.495 160.419Z" fill="#262626"/>
<path d="M249.978 97.413C259.56 96.9601 259.963 88.8054 259.963 88.8054C259.963 88.8054 264.711 89.1131 267.867 89.5412C273.034 90.242 276.452 91.7762 279.165 94.496C281.688 97.0261 283.216 99.9862 281.59 117.464C280.413 130.119 278.495 160.419 278.495 160.419L220.906 160.327C220.906 160.327 218.344 121.47 217.861 115.773C216.938 104.898 215.481 89.5708 218.573 88.8057C222.175 87.9143 233.933 89.3797 237.736 88.8062C237.8 88.7966 236.928 98.0299 249.978 97.413H249.978Z" fill="#2330E7"/>
<path d="M145.102 54.787C144.75 53.9909 143.803 53.6456 143.018 54.0447C142.283 54.4186 142.017 55.3472 142.352 56.1033L143.185 57.9889L137.831 53.2486C137.245 52.7112 136.183 52.4274 135.625 53.1263C135.137 53.6614 135.103 54.4491 135.497 55.0217C135.49 55.0271 135.483 55.0307 135.478 55.0375C135.474 55.042 135.472 55.0479 135.469 55.0527L134.565 54.2239C133.871 53.5879 132.75 53.7164 132.231 54.5629C131.845 55.1919 132.007 56.0176 132.551 56.5159L132.935 56.8687C132.93 56.885 132.928 56.9022 132.929 56.9191C132.303 56.5652 131.487 56.6912 131.005 57.2793C130.481 57.9179 130.609 58.8752 131.218 59.4332L132.164 60.3C132.12 60.2952 132.075 60.3085 132.043 60.344C132.024 60.3651 132.016 60.3902 132.012 60.4159C131.399 60.2654 130.715 60.5007 130.342 61.1091C129.956 61.7381 130.119 62.5638 130.662 63.0621L138.722 70.4528C141.029 72.5678 144.385 73.0683 147.206 71.7176L151.645 69.5916L145.102 54.7864L145.102 54.787Z" fill="#FF9E85"/>
<g opacity="0.2">
<path d="M140.771 59.7411C140.72 59.7972 140.633 59.8017 140.575 59.7507L135.49 55.2361C135.432 55.1845 135.426 55.0955 135.477 55.0371C135.521 54.9785 135.618 54.9734 135.676 55.025L140.762 59.5396C140.819 59.5912 140.825 59.6802 140.774 59.7386L140.771 59.7411Z" fill="#0C0C0C"/>
</g>
<g opacity="0.2">
<path d="M138.847 62.0452C138.796 62.1013 138.709 62.1058 138.651 62.0548L132.976 57.0165C132.918 56.965 132.912 56.8759 132.964 56.8176C133.011 56.7646 133.104 56.7542 133.162 56.8055L138.838 61.8437C138.896 61.8952 138.901 61.9843 138.85 62.0426L138.847 62.0452Z" fill="#0C0C0C"/>
</g>
<g opacity="0.2">
<path d="M136.778 64.5526C136.726 64.6087 136.639 64.6132 136.582 64.5622L132.054 60.5433C131.996 60.4917 131.991 60.4027 132.042 60.3443C132.095 60.2866 132.183 60.2809 132.241 60.3322L136.768 64.3511C136.826 64.4027 136.832 64.4918 136.78 64.5501L136.778 64.5526Z" fill="#0C0C0C"/>
</g>
<path d="M150.236 60.0127L180.754 85.0795L225.813 88.9008C231.614 89.3929 235.918 94.506 235.427 100.322C234.962 105.835 230.355 110 224.937 110C224.639 110 224.339 109.987 224.036 109.961L175.662 105.859C173.503 105.676 171.454 104.83 169.792 103.438L137.828 75.007L150.236 60.0127Z" fill="#2330E7"/>
<path d="M141.911 64.5974L119.485 60.1253L123.018 42.3152L128.789 38.6057L146.372 42.112L141.911 64.5974Z" fill="#D1D1DB"/>
<path opacity="0.29" d="M128.789 38.6057L123.018 42.3152L127.873 43.3683L128.789 38.6057Z" fill="#FFFFFA"/>
<g opacity="0.88">
<path d="M142.209 50.0972C142.19 50.0972 142.172 50.0955 142.153 50.0915L124.864 46.5748C124.712 46.5438 124.614 46.395 124.645 46.2426C124.676 46.0898 124.825 45.9918 124.976 46.0225L142.265 49.5392C142.417 49.5702 142.515 49.719 142.484 49.8714C142.457 50.005 142.34 50.0972 142.209 50.0972Z" fill="white"/>
<path d="M141.573 53.3935C141.554 53.3935 141.535 53.3918 141.516 53.3878L124.228 49.8711C124.076 49.8401 123.978 49.6913 124.009 49.5389C124.04 49.3861 124.188 49.2875 124.34 49.3188L141.628 52.8355C141.781 52.8665 141.879 53.0153 141.848 53.1677C141.821 53.3013 141.704 53.3935 141.573 53.3935Z" fill="white"/>
<path d="M140.888 57.03C140.869 57.03 140.85 57.0283 140.832 57.0244L123.543 53.5077C123.391 53.4767 123.293 53.3279 123.324 53.1754C123.355 53.0227 123.503 52.9238 123.655 52.9553L140.943 56.472C141.096 56.503 141.194 56.6518 141.163 56.8043C141.136 56.9379 141.019 57.03 140.888 57.03Z" fill="white"/>
<path d="M130.686 58.3376C130.668 58.3376 130.649 58.3359 130.63 58.3319L122.962 56.7718C122.809 56.7408 122.711 56.592 122.742 56.4396C122.773 56.2868 122.921 56.1879 123.074 56.2195L130.742 57.7796C130.894 57.8106 130.992 57.9594 130.961 58.1118C130.934 58.2454 130.817 58.3376 130.686 58.3376Z" fill="white"/>
</g>
<path d="M143.466 58.6932L142.351 56.1034C142.017 55.3473 142.282 54.4187 143.018 54.0447C143.802 53.6457 144.75 53.9912 145.102 54.787" fill="#FF9E85"/>
<path d="M244.428 125.235L237.016 119.076C236.347 118.521 235.346 118.635 234.82 119.342C234.328 120.006 234.503 120.956 235.138 121.483L236.722 122.799L244.177 126.67L244.428 125.235Z" fill="#FF9E85"/>
<path d="M236.722 122.799L229.823 120.947C229.059 120.727 227.982 120.947 227.793 121.822C227.594 122.52 227.913 123.242 228.52 123.578C228.517 123.585 228.512 123.591 228.51 123.599C228.509 123.605 228.51 123.611 228.509 123.617L227.332 123.279C226.428 123.019 225.481 123.635 225.393 124.624C225.327 125.36 225.839 126.027 226.547 126.23L227.048 126.374C227.05 126.391 227.056 126.407 227.064 126.421C226.346 126.384 225.673 126.862 225.502 127.604C225.316 128.41 225.857 129.209 226.65 129.437L227.881 129.791C227.84 129.806 227.806 129.838 227.793 129.884C227.785 129.911 227.789 129.938 227.797 129.963C227.182 130.102 226.674 130.618 226.61 131.329C226.544 132.065 227.056 132.731 227.764 132.935L238.264 135.952C241.269 136.815 244.496 135.764 246.421 133.295L249.451 129.409L236.722 122.799V122.799Z" fill="#FF9E85"/>
<g opacity="0.2">
<path d="M235.34 125.446C235.318 125.52 235.242 125.562 235.168 125.543L228.609 123.772C228.535 123.752 228.49 123.675 228.51 123.6C228.523 123.527 228.608 123.48 228.682 123.5L235.242 125.27C235.316 125.291 235.361 125.368 235.341 125.443L235.34 125.446Z" fill="#0C0C0C"/>
</g>
<g opacity="0.2">
<path d="M234.641 128.368C234.619 128.442 234.543 128.485 234.469 128.465L227.15 126.489C227.075 126.469 227.03 126.392 227.05 126.316C227.069 126.248 227.148 126.197 227.223 126.217L234.543 128.193C234.617 128.213 234.662 128.29 234.642 128.365L234.641 128.368Z" fill="#0C0C0C"/>
</g>
<g opacity="0.2">
<path d="M233.902 131.537C233.881 131.611 233.805 131.653 233.731 131.634L227.892 130.058C227.817 130.038 227.773 129.96 227.793 129.885C227.815 129.81 227.89 129.766 227.965 129.786L233.804 131.361C233.879 131.382 233.923 131.459 233.903 131.534L233.902 131.537Z" fill="#0C0C0C"/>
</g>
<path d="M239.066 138.685L286.754 152.487C287.65 152.726 288.559 152.842 289.459 152.842C292.5 152.842 295.446 151.52 297.478 149.134C300.111 146.04 300.739 141.706 299.095 137.988L282.836 99.1547C280.476 93.8194 274.248 91.4131 268.928 93.78C263.606 96.1466 261.207 102.39 263.567 107.725L273.343 128.147L243.609 121.255L239.066 138.685Z" fill="#2330E7"/>
<path d="M279.156 150.429C279.143 150.429 279.13 150.427 279.117 150.423L239.027 138.821C238.954 138.8 238.911 138.723 238.93 138.65L243.473 121.219C243.493 121.145 243.569 121.1 243.641 121.117L273.089 127.943L263.44 107.786C263.406 107.716 263.436 107.632 263.506 107.598C263.576 107.565 263.66 107.594 263.693 107.664L273.469 128.085C273.493 128.134 273.486 128.192 273.452 128.234C273.418 128.276 273.363 128.296 273.311 128.284L243.71 121.423L239.237 138.588L279.194 150.153C279.269 150.174 279.312 150.252 279.291 150.327C279.273 150.389 279.217 150.429 279.156 150.429L279.156 150.429Z" fill="#0C0C0C"/>
<path d="M278.252 129.358C278.242 129.358 278.232 129.357 278.222 129.354L273.313 128.284C273.237 128.267 273.189 128.192 273.206 128.116C273.222 128.04 273.297 127.992 273.373 128.008L278.282 129.079C278.358 129.096 278.405 129.171 278.389 129.247C278.375 129.312 278.316 129.358 278.252 129.358Z" fill="#0C0C0C"/>
<path d="M217.325 109.533C217.252 109.533 217.19 109.477 217.185 109.403L216.559 101.276C216.553 101.199 216.611 101.13 216.688 101.125C216.759 101.115 216.833 101.177 216.839 101.254L217.465 109.382C217.471 109.459 217.413 109.527 217.336 109.533C217.332 109.533 217.329 109.533 217.325 109.533Z" fill="#0C0C0C"/>
<path d="M283.313 176H8.95209C8.79694 176 8.67102 175.874 8.67102 175.718C8.67102 175.563 8.79694 175.436 8.95209 175.436H283.313C283.468 175.436 283.594 175.563 283.594 175.718C283.594 175.874 283.468 176 283.313 176Z" fill="#292A2E"/>
</svg>
