<svg width="239" height="67" viewBox="0 0 239 67" fill="none" xmlns="http://www.w3.org/2000/svg">
<path d="M71.0195 25C70.8867 25 70.7852 24.9219 70.7148 24.7656C70.6523 24.6094 70.6211 24.4883 70.6211 24.4023C70.6211 24.1445 70.75 24 71.0078 23.9688C71.2578 23.9453 71.543 23.9062 71.8633 23.8516C72.1836 23.7969 72.4648 23.7031 72.707 23.5703C72.9492 23.4297 73.0703 23.2344 73.0703 22.9844V10.9844C73.0703 10.6484 72.9414 10.3711 72.6836 10.1523C72.4258 9.92578 72.1289 9.75 71.793 9.625C71.4648 9.5 71.1797 9.42578 70.9375 9.40234C70.7734 9.38672 70.6602 9.35547 70.5977 9.30859C70.543 9.25391 70.5156 9.14062 70.5156 8.96875C70.5156 8.88281 70.5469 8.76172 70.6094 8.60547C70.6797 8.44922 70.7812 8.37109 70.9141 8.37109H76.0938L85.4688 20.0781H85.6094V10.5391C85.6094 10.2031 85.4805 9.96094 85.2227 9.8125C84.9727 9.66406 84.6797 9.56641 84.3438 9.51953C84.0156 9.46484 83.7305 9.42578 83.4883 9.40234C83.3242 9.38672 83.2109 9.35547 83.1484 9.30859C83.0938 9.25391 83.0664 9.14062 83.0664 8.96875C83.0664 8.88281 83.0977 8.76172 83.1602 8.60547C83.2305 8.44922 83.332 8.37109 83.4648 8.37109H88.9609C89.0938 8.37109 89.1914 8.44922 89.2539 8.60547C89.3242 8.76172 89.3594 8.88281 89.3594 8.96875C89.3594 9.22656 89.2305 9.37109 88.9727 9.40234C88.7383 9.42578 88.457 9.46875 88.1289 9.53125C87.8086 9.59375 87.5273 9.69922 87.2852 9.84766C87.043 9.99609 86.9219 10.2148 86.9219 10.5039V23.6758C86.9219 23.8242 86.9297 23.9492 86.9453 24.0508C86.9609 24.1445 86.9766 24.3047 86.9922 24.5312C87.0156 24.8438 86.8906 25.0586 86.6172 25.1758C86.3438 25.293 86.0977 25.3516 85.8789 25.3516C85.5977 25.3516 85.3867 25.2656 85.2461 25.0938L74.6523 11.9922H74.4531V22.832C74.4531 23.168 74.5898 23.4102 74.8633 23.5586C75.1445 23.707 75.4648 23.8047 75.8242 23.8516C76.1836 23.8984 76.4805 23.9375 76.7148 23.9688C76.8789 23.9844 76.9883 24.0156 77.043 24.0625C77.1055 24.1094 77.1367 24.2227 77.1367 24.4023C77.1367 24.4883 77.1016 24.6094 77.0312 24.7656C76.9688 24.9219 76.8711 25 76.7383 25H71.0195ZM90.5078 19.2344C90.5078 17.9531 90.7734 16.8555 91.3047 15.9414C91.8438 15.0273 92.5938 14.3281 93.5547 13.8438C94.5234 13.3594 95.6602 13.1172 96.9648 13.1172C98.2695 13.1172 99.3906 13.3594 100.328 13.8438C101.273 14.3281 102 15.0273 102.508 15.9414C103.016 16.8555 103.27 17.9531 103.27 19.2344C103.27 20.5156 103.008 21.6133 102.484 22.5273C101.969 23.4336 101.23 24.1289 100.27 24.6133C99.3164 25.0977 98.1875 25.3398 96.8828 25.3398C95.5703 25.3398 94.4375 25.0977 93.4844 24.6133C92.5391 24.1289 91.8047 23.4336 91.2812 22.5273C90.7656 21.6133 90.5078 20.5156 90.5078 19.2344ZM94.1406 19.2344C94.1406 20.8047 94.332 22.0312 94.7148 22.9141C95.0977 23.7891 95.832 24.2266 96.918 24.2266C97.9961 24.2266 98.7188 23.7891 99.0859 22.9141C99.4531 22.0312 99.6367 20.8047 99.6367 19.2344C99.6367 17.6641 99.4453 16.4414 99.0625 15.5664C98.6797 14.6836 97.9492 14.2422 96.8711 14.2422C95.7852 14.2422 95.0586 14.6836 94.6914 15.5664C94.3242 16.4492 94.1406 17.6719 94.1406 19.2344ZM109.281 25.1055L105.52 15.2852C105.332 14.8711 105.117 14.6055 104.875 14.4883C104.641 14.3711 104.379 14.2969 104.09 14.2656C103.926 14.25 103.816 14.2188 103.762 14.1719C103.699 14.1172 103.668 14.0039 103.668 13.832C103.668 13.7461 103.703 13.6445 103.773 13.5273C103.844 13.4102 103.941 13.3516 104.066 13.3516H110.113C110.246 13.3516 110.344 13.4102 110.406 13.5273C110.477 13.6445 110.512 13.7461 110.512 13.832C110.512 14.1055 110.383 14.25 110.125 14.2656C109.773 14.2891 109.473 14.332 109.223 14.3945C108.98 14.457 108.859 14.5859 108.859 14.7812L111.262 21.5195L113.711 13.4805H115.891L118.891 21.3789L121.199 14.8047C121.199 14.6719 121.125 14.5703 120.977 14.5C120.828 14.4219 120.633 14.3672 120.391 14.3359C120.156 14.3047 119.902 14.2812 119.629 14.2656C119.371 14.25 119.242 14.1055 119.242 13.832C119.242 13.7461 119.273 13.6445 119.336 13.5273C119.406 13.4102 119.508 13.3516 119.641 13.3516H123.848C123.98 13.3516 124.078 13.4102 124.141 13.5273C124.211 13.6445 124.246 13.7461 124.246 13.832C124.246 14.0039 124.215 14.1172 124.152 14.1719C124.098 14.2188 123.988 14.25 123.824 14.2656C123.535 14.2969 123.277 14.3711 123.051 14.4883C122.824 14.6055 122.621 14.8711 122.441 15.2852L118.82 25.1055H116.98L113.91 17.0781L111.297 25.1055H109.281ZM71.6758 55C71.543 55 71.4414 54.9219 71.3711 54.7656C71.3086 54.6094 71.2773 54.4883 71.2773 54.4023C71.2773 54.1445 71.4062 54 71.6641 53.9688C72.0391 53.9375 72.4141 53.8711 72.7891 53.7695C73.1719 53.6602 73.3633 53.4766 73.3633 53.2188V40.5391C73.3633 40.2031 73.2617 39.9609 73.0586 39.8125C72.8633 39.6641 72.6289 39.5664 72.3555 39.5195C72.082 39.4648 71.8242 39.4258 71.582 39.4023C71.418 39.3867 71.3047 39.3555 71.2422 39.3086C71.1875 39.2539 71.1602 39.1406 71.1602 38.9688C71.1602 38.8828 71.1914 38.7617 71.2539 38.6055C71.3242 38.4492 71.4258 38.3711 71.5586 38.3711H79.3633C80.957 38.3789 82.332 38.6055 83.4883 39.0508C84.6523 39.4961 85.6094 40.0977 86.3594 40.8555C87.1094 41.6133 87.6641 42.4688 88.0234 43.4219C88.3906 44.3672 88.5742 45.3438 88.5742 46.3516C88.5742 47.5703 88.3945 48.6523 88.0352 49.5977C87.6836 50.543 87.2109 51.3555 86.6172 52.0352C86.0234 52.7148 85.3555 53.2734 84.6133 53.7109C83.8789 54.1484 83.125 54.4727 82.3516 54.6836C81.5781 54.8945 80.8398 55 80.1367 55H71.6758ZM76.8672 53.0312C76.8672 53.1406 76.9297 53.2578 77.0547 53.3828C77.1797 53.5 77.4141 53.6016 77.7578 53.6875C78.1094 53.7734 78.625 53.8164 79.3047 53.8164C80.0156 53.8164 80.6875 53.7422 81.3203 53.5938C81.9531 53.4375 82.5078 53.1172 82.9844 52.6328C83.4609 52.1406 83.8359 51.3984 84.1094 50.4062C84.3828 49.4141 84.5195 48.0781 84.5195 46.3984C84.5195 44.9453 84.3711 43.7695 84.0742 42.8711C83.7773 41.9648 83.3789 41.2695 82.8789 40.7852C82.3789 40.293 81.8086 39.957 81.168 39.7773C80.5273 39.5977 79.8672 39.5078 79.1875 39.5078H76.8789L76.8672 53.0312ZM90.6367 55C90.5039 55 90.4023 54.9414 90.332 54.8242C90.2695 54.707 90.2383 54.6055 90.2383 54.5195C90.2383 54.2539 90.3672 54.1094 90.625 54.0859C90.9141 54.0547 91.2109 53.9922 91.5156 53.8984C91.8203 53.8047 91.9727 53.6445 91.9727 53.418L91.9844 45.8828C91.9844 45.3984 91.8828 45.0703 91.6797 44.8984C91.4766 44.7188 91.2383 44.6133 90.9648 44.582C90.6914 44.5508 90.4492 44.5078 90.2383 44.4531C90.1602 44.4141 90.0938 44.3633 90.0391 44.3008C89.9844 44.2383 89.957 44.1328 89.957 43.9844C89.957 43.8906 89.9805 43.7852 90.0273 43.668C90.0742 43.543 90.1445 43.4766 90.2383 43.4688C91.2539 43.4062 92.1719 43.3672 92.9922 43.3516C93.8125 43.3281 94.4414 43.3164 94.8789 43.3164C94.9414 43.3164 95.0117 43.3477 95.0898 43.4102C95.1758 43.4727 95.2227 43.5977 95.2305 43.7852V53.0312C95.2305 53.3438 95.3086 53.5703 95.4648 53.7109C95.6289 53.8516 95.8203 53.9453 96.0391 53.9922C96.2656 54.0312 96.4727 54.0625 96.6602 54.0859C96.8242 54.1016 96.9336 54.1328 96.9883 54.1797C97.0508 54.2266 97.082 54.3398 97.082 54.5195C97.082 54.6055 97.0469 54.707 96.9766 54.8242C96.9141 54.9414 96.8164 55 96.6836 55H90.6367ZM93.543 41.4414C92.9883 41.4414 92.5195 41.2539 92.1367 40.8789C91.7617 40.5039 91.5742 40.0273 91.5742 39.4492C91.5742 38.8711 91.7617 38.3945 92.1367 38.0195C92.5195 37.6445 92.9883 37.457 93.543 37.457C94.0898 37.457 94.5547 37.6445 94.9375 38.0195C95.3203 38.3945 95.5117 38.8711 95.5117 39.4492C95.5117 40.0273 95.3203 40.5039 94.9375 40.8789C94.5547 41.2539 94.0898 41.4414 93.543 41.4414ZM103.75 60.6016C103.008 60.6016 102.293 60.5352 101.605 60.4023C100.926 60.2773 100.312 60.082 99.7656 59.8164C99.2266 59.5508 98.7969 59.2109 98.4766 58.7969C98.1562 58.3906 97.9961 57.9102 97.9961 57.3555C97.9961 56.6836 98.1953 56.1484 98.5938 55.75C99 55.3516 99.5312 55.0508 100.188 54.8477C99.5391 54.5742 99.1211 54.2539 98.9336 53.8867C98.7461 53.5195 98.6523 53.1289 98.6523 52.7148C98.6523 52.1523 98.875 51.6602 99.3203 51.2383C99.7656 50.8164 100.262 50.5234 100.809 50.3594C100.035 50.0078 99.4844 49.5195 99.1562 48.8945C98.8281 48.2695 98.6641 47.625 98.6641 46.9609C98.6641 46.2188 98.8516 45.5586 99.2266 44.9805C99.6016 44.4023 100.164 43.9492 100.914 43.6211C101.672 43.2852 102.605 43.1172 103.715 43.1172C104.527 43.1172 105.195 43.207 105.719 43.3867C106.242 43.5664 106.699 43.8125 107.09 44.125C107.332 43.8516 107.629 43.6133 107.98 43.4102C108.332 43.1992 108.707 43.0938 109.105 43.0938C109.598 43.0938 110.027 43.2422 110.395 43.5391C110.77 43.8359 110.957 44.3047 110.957 44.9453C110.957 45.4219 110.867 45.7852 110.688 46.0352C110.516 46.2852 110.262 46.4102 109.926 46.4102L108.543 44.3945C108.355 44.4023 108.195 44.4336 108.062 44.4883C107.93 44.5352 107.797 44.6172 107.664 44.7344C108.125 45.3594 108.355 46.0938 108.355 46.9375C108.355 47.6641 108.184 48.3281 107.84 48.9297C107.504 49.5312 106.977 50.0078 106.258 50.3594C105.547 50.7031 104.625 50.875 103.492 50.875C103.094 50.875 102.734 50.8594 102.414 50.8281C102.094 50.7891 101.801 50.7305 101.535 50.6523C101.324 50.7852 101.16 50.957 101.043 51.168C100.926 51.3711 100.867 51.5859 100.867 51.8125C100.867 52.1562 101.043 52.3867 101.395 52.5039C101.746 52.6211 102.191 52.6797 102.73 52.6797H105.801C106.629 52.6797 107.352 52.8125 107.969 53.0781C108.594 53.3438 109.078 53.75 109.422 54.2969C109.766 54.8359 109.938 55.5195 109.938 56.3477C109.938 57.0117 109.711 57.668 109.258 58.3164C108.805 58.9727 108.121 59.5156 107.207 59.9453C106.293 60.3828 105.141 60.6016 103.75 60.6016ZM104.066 59.4531C104.488 59.4531 104.895 59.4062 105.285 59.3125C105.684 59.2188 106.035 59.0742 106.34 58.8789C106.645 58.6836 106.887 58.4414 107.066 58.1523C107.246 57.8711 107.336 57.543 107.336 57.168C107.336 56.8398 107.266 56.543 107.125 56.2773C106.984 56.0195 106.758 55.8125 106.445 55.6562C106.133 55.5 105.727 55.4219 105.227 55.4219H103.023C102.844 55.4219 102.625 55.4102 102.367 55.3867C102.117 55.3711 101.875 55.3438 101.641 55.3047C101.406 55.2656 101.23 55.2227 101.113 55.1758C101.02 55.3633 100.934 55.5742 100.855 55.8086C100.785 56.0508 100.75 56.3945 100.75 56.8398C100.75 57.4805 100.926 57.9922 101.277 58.375C101.629 58.7578 102.062 59.0312 102.578 59.1953C103.094 59.3672 103.59 59.4531 104.066 59.4531ZM103.539 49.8203C104 49.8203 104.359 49.6875 104.617 49.4219C104.883 49.1484 105.066 48.793 105.168 48.3555C105.277 47.9102 105.332 47.4336 105.332 46.9258C105.332 46.168 105.203 45.5195 104.945 44.9805C104.695 44.4414 104.223 44.1719 103.527 44.1719C103.066 44.1719 102.711 44.3008 102.461 44.5586C102.219 44.8164 102.051 45.1602 101.957 45.5898C101.863 46.0117 101.816 46.4805 101.816 46.9961C101.816 47.4961 101.863 47.9648 101.957 48.4023C102.051 48.832 102.223 49.1758 102.473 49.4336C102.723 49.6914 103.078 49.8203 103.539 49.8203ZM112.035 55C111.902 55 111.801 54.9414 111.73 54.8242C111.668 54.707 111.637 54.6055 111.637 54.5195C111.637 54.2539 111.766 54.1094 112.023 54.0859C112.312 54.0547 112.609 53.9922 112.914 53.8984C113.219 53.8047 113.371 53.6445 113.371 53.418L113.383 45.8828C113.383 45.3984 113.281 45.0703 113.078 44.8984C112.875 44.7188 112.637 44.6133 112.363 44.582C112.09 44.5508 111.848 44.5078 111.637 44.4531C111.559 44.4141 111.492 44.3633 111.438 44.3008C111.383 44.2383 111.355 44.1328 111.355 43.9844C111.355 43.8906 111.379 43.7852 111.426 43.668C111.473 43.543 111.543 43.4766 111.637 43.4688C112.652 43.4062 113.57 43.3672 114.391 43.3516C115.211 43.3281 115.84 43.3164 116.277 43.3164C116.34 43.3164 116.41 43.3477 116.488 43.4102C116.574 43.4727 116.621 43.5977 116.629 43.7852V53.0312C116.629 53.3438 116.707 53.5703 116.863 53.7109C117.027 53.8516 117.219 53.9453 117.438 53.9922C117.664 54.0312 117.871 54.0625 118.059 54.0859C118.223 54.1016 118.332 54.1328 118.387 54.1797C118.449 54.2266 118.48 54.3398 118.48 54.5195C118.48 54.6055 118.445 54.707 118.375 54.8242C118.312 54.9414 118.215 55 118.082 55H112.035ZM114.941 41.4414C114.387 41.4414 113.918 41.2539 113.535 40.8789C113.16 40.5039 112.973 40.0273 112.973 39.4492C112.973 38.8711 113.16 38.3945 113.535 38.0195C113.918 37.6445 114.387 37.457 114.941 37.457C115.488 37.457 115.953 37.6445 116.336 38.0195C116.719 38.3945 116.91 38.8711 116.91 39.4492C116.91 40.0273 116.719 40.5039 116.336 40.8789C115.953 41.2539 115.488 41.4414 114.941 41.4414ZM124.363 55.3516C123.691 55.3516 123.094 55.2617 122.57 55.082C122.047 54.9102 121.637 54.6094 121.34 54.1797C121.043 53.7422 120.895 53.1445 120.895 52.3867V44.5469H119.605C119.52 44.5391 119.449 44.4805 119.395 44.3711C119.348 44.2617 119.324 44.1602 119.324 44.0664C119.324 43.7617 119.426 43.5859 119.629 43.5391C120.246 43.4375 120.742 43.2734 121.117 43.0469C121.5 42.8203 121.809 42.4766 122.043 42.0156C122.285 41.5547 122.492 40.9297 122.664 40.1406C122.695 40.0156 122.766 39.918 122.875 39.8477C122.992 39.7773 123.184 39.7422 123.449 39.7422C123.73 39.7422 123.918 39.7734 124.012 39.8359C124.113 39.8984 124.164 39.9883 124.164 40.1055V43.3516H127.023C127.117 43.3594 127.188 43.4062 127.234 43.4922C127.281 43.5703 127.305 43.6562 127.305 43.75C127.305 43.9766 127.27 44.1641 127.199 44.3125C127.129 44.4609 127.051 44.5352 126.965 44.5352H124.164V51.4023C124.164 52.0664 124.207 52.5742 124.293 52.9258C124.387 53.2695 124.52 53.5078 124.691 53.6406C124.863 53.7656 125.074 53.8281 125.324 53.8281C125.676 53.8281 126.02 53.7773 126.355 53.6758C126.699 53.5742 127.016 53.4414 127.305 53.2773C127.406 53.2148 127.496 53.2422 127.574 53.3594C127.66 53.4766 127.715 53.6094 127.738 53.7578C127.77 53.9062 127.758 54 127.703 54.0391C127.523 54.2344 127.238 54.4336 126.848 54.6367C126.465 54.832 126.051 55 125.605 55.1406C125.16 55.2812 124.746 55.3516 124.363 55.3516ZM129.145 52.1641C129.145 51.3828 129.367 50.7422 129.812 50.2422C130.266 49.7344 130.855 49.332 131.582 49.0352C132.309 48.7305 133.094 48.5 133.938 48.3438C134.781 48.1875 135.598 48.0703 136.387 47.9922V46.0938C136.387 45.6562 136.312 45.3008 136.164 45.0273C136.016 44.7539 135.797 44.5508 135.508 44.418C135.219 44.2773 134.855 44.207 134.418 44.207C134.043 44.207 133.766 44.2305 133.586 44.2773C133.414 44.3164 133.285 44.3594 133.199 44.4062L131.477 47.4531C130.93 47.4531 130.473 47.3164 130.105 47.043C129.746 46.7617 129.566 46.375 129.566 45.8828C129.566 45.4297 129.73 45.0312 130.059 44.6875C130.387 44.3438 130.816 44.0547 131.348 43.8203C131.879 43.5859 132.457 43.4102 133.082 43.293C133.707 43.1758 134.32 43.1172 134.922 43.1172C135.812 43.1172 136.562 43.207 137.172 43.3867C137.789 43.5664 138.281 43.8164 138.648 44.1367C139.023 44.4492 139.293 44.8125 139.457 45.2266C139.629 45.6328 139.715 46.0703 139.715 46.5391V52.668C139.715 52.9727 139.758 53.2383 139.844 53.4648C139.93 53.6914 140.035 53.8047 140.16 53.8047C140.27 53.8047 140.418 53.7852 140.605 53.7461C140.801 53.707 140.934 53.6797 141.004 53.6641C141.137 53.6562 141.234 53.7266 141.297 53.875C141.367 54.0156 141.402 54.1523 141.402 54.2852C141.402 54.3789 141.379 54.4453 141.332 54.4844C141.176 54.5938 140.816 54.7539 140.254 54.9648C139.691 55.168 139.004 55.2695 138.191 55.2695C137.566 55.2695 137.141 55.1758 136.914 54.9883C136.695 54.793 136.586 54.3828 136.586 53.7578V53.5703C136.078 54.1484 135.488 54.5781 134.816 54.8594C134.145 55.1328 133.398 55.2695 132.578 55.2695C132.109 55.2695 131.605 55.168 131.066 54.9648C130.535 54.7539 130.082 54.4219 129.707 53.9688C129.332 53.5156 129.145 52.9141 129.145 52.1641ZM132.648 52.0586C132.648 52.4805 132.781 52.8594 133.047 53.1953C133.32 53.5312 133.715 53.6992 134.23 53.6992C134.777 53.6992 135.227 53.5977 135.578 53.3945C135.938 53.1836 136.203 52.9766 136.375 52.7734V48.8945C135.758 48.9883 135.164 49.1289 134.594 49.3164C134.023 49.4961 133.555 49.7969 133.188 50.2188C132.828 50.6328 132.648 51.2461 132.648 52.0586ZM142.574 55C142.441 55 142.34 54.9453 142.27 54.8359C142.199 54.7266 142.164 54.6211 142.164 54.5195C142.164 54.2539 142.293 54.1094 142.551 54.0859C142.84 54.0625 143.137 54.0039 143.441 53.9102C143.746 53.8086 143.898 53.6445 143.898 53.418L143.91 39.4023C143.91 38.9102 143.793 38.5781 143.559 38.4062C143.324 38.2266 143.055 38.1211 142.75 38.0898C142.445 38.0586 142.184 38.0156 141.965 37.9609C141.887 37.9219 141.82 37.8711 141.766 37.8086C141.711 37.7461 141.684 37.6406 141.684 37.4922C141.684 37.3984 141.707 37.2891 141.754 37.1641C141.801 37.0391 141.871 36.9727 141.965 36.9648C142.957 36.9023 143.887 36.8633 144.754 36.8477C145.621 36.832 146.273 36.8203 146.711 36.8125C146.773 36.8125 146.844 36.8477 146.922 36.918C147.008 36.9805 147.055 37.1055 147.062 37.293V53.0312C147.062 53.3359 147.141 53.5625 147.297 53.7109C147.461 53.8516 147.652 53.9453 147.871 53.9922C148.098 54.0312 148.305 54.0625 148.492 54.0859C148.656 54.1016 148.766 54.1367 148.82 54.1914C148.883 54.2383 148.914 54.3438 148.914 54.5078C148.914 54.6094 148.879 54.7188 148.809 54.8359C148.738 54.9453 148.637 55 148.504 55H142.574ZM156.766 54.4023C156.766 54.1445 156.895 54 157.152 53.9688C157.527 53.9375 157.906 53.8711 158.289 53.7695C158.672 53.6602 158.863 53.4766 158.863 53.2188V40.5391C158.863 40.2031 158.762 39.9609 158.559 39.8125C158.363 39.6641 158.129 39.5664 157.855 39.5195C157.582 39.4648 157.324 39.4258 157.082 39.4023C156.918 39.3867 156.805 39.3555 156.742 39.3086C156.688 39.2539 156.66 39.1406 156.66 38.9688C156.66 38.8828 156.691 38.7617 156.754 38.6055C156.824 38.4492 156.926 38.3711 157.059 38.3711H170.008L170.418 42.1797C170.434 42.3125 170.375 42.4141 170.242 42.4844C170.109 42.5469 170 42.5781 169.914 42.5781C169.789 42.5781 169.645 42.5586 169.48 42.5195C169.316 42.4727 169.188 42.3633 169.094 42.1914C168.781 41.6055 168.531 41.1172 168.344 40.7266C168.156 40.3281 167.949 40.0312 167.723 39.8359C167.496 39.6328 167.172 39.5312 166.75 39.5312H162.355V45.8828H165.367C165.57 45.8516 165.758 45.7031 165.93 45.4375C166.102 45.1719 166.242 44.8867 166.352 44.582C166.469 44.2695 166.535 44.0352 166.551 43.8789C166.566 43.7227 166.629 43.6211 166.738 43.5742C166.848 43.5273 166.965 43.5039 167.09 43.5039C167.176 43.5039 167.297 43.5391 167.453 43.6094C167.609 43.6719 167.688 43.7695 167.688 43.9023V49.0938C167.688 49.2266 167.609 49.3281 167.453 49.3984C167.297 49.4609 167.176 49.4922 167.09 49.4922C166.965 49.4922 166.84 49.4648 166.715 49.4102C166.598 49.3555 166.531 49.2539 166.516 49.1055C166.508 48.9336 166.445 48.6836 166.328 48.3555C166.219 48.0195 166.074 47.7109 165.895 47.4297C165.715 47.1484 165.516 47.0078 165.297 47.0078H162.355V52.6914C162.355 53.1211 162.465 53.4102 162.684 53.5586C162.91 53.707 163.152 53.793 163.41 53.8164H166.785C167.488 53.8164 168.078 53.5781 168.555 53.1016C169.031 52.625 169.5 51.8008 169.961 50.6289C170.016 50.4805 170.129 50.3789 170.301 50.3242C170.48 50.2695 170.633 50.2422 170.758 50.2422C170.906 50.2422 171.051 50.2773 171.191 50.3477C171.34 50.4102 171.422 50.5078 171.438 50.6406L170.934 55H157.164C157.031 55 156.93 54.9219 156.859 54.7656C156.797 54.6094 156.766 54.4883 156.766 54.4023ZM173.465 52.1641C173.465 51.3828 173.688 50.7422 174.133 50.2422C174.586 49.7344 175.176 49.332 175.902 49.0352C176.629 48.7305 177.414 48.5 178.258 48.3438C179.102 48.1875 179.918 48.0703 180.707 47.9922V46.0938C180.707 45.6562 180.633 45.3008 180.484 45.0273C180.336 44.7539 180.117 44.5508 179.828 44.418C179.539 44.2773 179.176 44.207 178.738 44.207C178.363 44.207 178.086 44.2305 177.906 44.2773C177.734 44.3164 177.605 44.3594 177.52 44.4062L175.797 47.4531C175.25 47.4531 174.793 47.3164 174.426 47.043C174.066 46.7617 173.887 46.375 173.887 45.8828C173.887 45.4297 174.051 45.0312 174.379 44.6875C174.707 44.3438 175.137 44.0547 175.668 43.8203C176.199 43.5859 176.777 43.4102 177.402 43.293C178.027 43.1758 178.641 43.1172 179.242 43.1172C180.133 43.1172 180.883 43.207 181.492 43.3867C182.109 43.5664 182.602 43.8164 182.969 44.1367C183.344 44.4492 183.613 44.8125 183.777 45.2266C183.949 45.6328 184.035 46.0703 184.035 46.5391V52.668C184.035 52.9727 184.078 53.2383 184.164 53.4648C184.25 53.6914 184.355 53.8047 184.48 53.8047C184.59 53.8047 184.738 53.7852 184.926 53.7461C185.121 53.707 185.254 53.6797 185.324 53.6641C185.457 53.6562 185.555 53.7266 185.617 53.875C185.688 54.0156 185.723 54.1523 185.723 54.2852C185.723 54.3789 185.699 54.4453 185.652 54.4844C185.496 54.5938 185.137 54.7539 184.574 54.9648C184.012 55.168 183.324 55.2695 182.512 55.2695C181.887 55.2695 181.461 55.1758 181.234 54.9883C181.016 54.793 180.906 54.3828 180.906 53.7578V53.5703C180.398 54.1484 179.809 54.5781 179.137 54.8594C178.465 55.1328 177.719 55.2695 176.898 55.2695C176.43 55.2695 175.926 55.168 175.387 54.9648C174.855 54.7539 174.402 54.4219 174.027 53.9688C173.652 53.5156 173.465 52.9141 173.465 52.1641ZM176.969 52.0586C176.969 52.4805 177.102 52.8594 177.367 53.1953C177.641 53.5312 178.035 53.6992 178.551 53.6992C179.098 53.6992 179.547 53.5977 179.898 53.3945C180.258 53.1836 180.523 52.9766 180.695 52.7734V48.8945C180.078 48.9883 179.484 49.1289 178.914 49.3164C178.344 49.4961 177.875 49.7969 177.508 50.2188C177.148 50.6328 176.969 51.2461 176.969 52.0586ZM191.758 55.3398C191.109 55.3398 190.551 55.2578 190.082 55.0938C189.621 54.9375 189.285 54.8125 189.074 54.7188C188.887 54.6484 188.73 54.6133 188.605 54.6133C188.426 54.6133 188.301 54.6484 188.23 54.7188C188.16 54.7812 188.086 54.8477 188.008 54.918C187.938 54.9805 187.809 55.0117 187.621 55.0117C187.473 55.0117 187.34 54.9805 187.223 54.918C187.113 54.8477 187.059 54.7578 187.059 54.6484C187.059 54.5078 187.051 54.2852 187.035 53.9805C187.027 53.668 187.016 53.332 187 52.9727C186.984 52.6055 186.969 52.2617 186.953 51.9414C186.945 51.6211 186.941 51.3789 186.941 51.2148C186.941 51.0352 186.996 50.9062 187.105 50.8281C187.223 50.75 187.348 50.7109 187.48 50.7109C187.762 50.7109 187.926 50.7969 187.973 50.9688C188.02 51.1406 188.082 51.3477 188.16 51.5898C188.246 51.8242 188.398 52.1641 188.617 52.6094C188.758 52.8672 188.961 53.1328 189.227 53.4062C189.5 53.6719 189.836 53.8945 190.234 54.0742C190.641 54.2539 191.102 54.3438 191.617 54.3438C192.273 54.3438 192.801 54.2227 193.199 53.9805C193.605 53.7383 193.809 53.3789 193.809 52.9023C193.809 52.5117 193.688 52.1797 193.445 51.9062C193.211 51.625 192.844 51.3594 192.344 51.1094C191.852 50.8594 191.223 50.5898 190.457 50.3008C189.949 50.0898 189.449 49.832 188.957 49.5273C188.473 49.2148 188.066 48.8203 187.738 48.3438C187.418 47.8672 187.258 47.2852 187.258 46.5977C187.258 45.9102 187.473 45.3047 187.902 44.7812C188.332 44.2578 188.898 43.8516 189.602 43.5625C190.305 43.2656 191.07 43.1172 191.898 43.1172C192.641 43.1172 193.23 43.2148 193.668 43.4102C194.105 43.5977 194.414 43.6914 194.594 43.6914C194.766 43.6914 194.863 43.6484 194.887 43.5625C194.918 43.4766 194.957 43.3906 195.004 43.3047C195.051 43.2188 195.121 43.1562 195.215 43.1172C195.316 43.0781 195.418 43.0586 195.52 43.0586C195.668 43.0586 195.801 43.0938 195.918 43.1641C196.035 43.2344 196.094 43.3359 196.094 43.4688C196.094 43.5391 196.086 43.7305 196.07 44.043C196.062 44.3477 196.059 44.6797 196.059 45.0391C196.059 45.3125 196.07 45.5664 196.094 45.8008C196.117 46.0273 196.129 46.2188 196.129 46.375C196.129 46.5859 196.074 46.7344 195.965 46.8203C195.855 46.9062 195.73 46.9492 195.59 46.9492C195.332 46.9492 195.18 46.8789 195.133 46.7383C195.016 46.4102 194.848 46.043 194.629 45.6367C194.418 45.2305 194.105 44.8789 193.691 44.582C193.285 44.2773 192.727 44.125 192.016 44.125C191.711 44.125 191.418 44.1719 191.137 44.2656C190.863 44.3516 190.641 44.4961 190.469 44.6992C190.297 44.9023 190.211 45.168 190.211 45.4961C190.211 46.0352 190.445 46.4727 190.914 46.8086C191.383 47.1367 192.043 47.4609 192.895 47.7812C193.59 48.0391 194.246 48.3359 194.863 48.6719C195.488 49.0078 195.992 49.4219 196.375 49.9141C196.766 50.3984 196.961 51 196.961 51.7188C196.961 52.8672 196.512 53.7578 195.613 54.3906C194.715 55.0234 193.43 55.3398 191.758 55.3398ZM200.793 60.2617C200.426 60.2617 200.062 60.1797 199.703 60.0156C199.344 59.8594 199.043 59.6406 198.801 59.3594C198.566 59.0859 198.449 58.7773 198.449 58.4336C198.449 57.9727 198.57 57.6172 198.812 57.3672C199.055 57.125 199.34 57.0039 199.668 57.0039L201.027 58.4688C201.395 58.4609 201.723 58.3477 202.012 58.1289C202.301 57.918 202.586 57.5898 202.867 57.1445C203.148 56.6992 203.457 56.125 203.793 55.4219L199.246 45.2852C199.035 44.8789 198.816 44.6172 198.59 44.5C198.363 44.375 198.105 44.2969 197.816 44.2656C197.652 44.25 197.543 44.2188 197.488 44.1719C197.426 44.1172 197.395 44.0039 197.395 43.832C197.395 43.7461 197.43 43.6445 197.5 43.5273C197.562 43.4102 197.656 43.3516 197.781 43.3516H203.875C204.008 43.3516 204.105 43.4102 204.168 43.5273C204.238 43.6445 204.273 43.7461 204.273 43.832C204.273 44.0898 204.145 44.2344 203.887 44.2656C203.621 44.2969 203.344 44.3438 203.055 44.4062C202.766 44.4688 202.621 44.6016 202.621 44.8047L205.375 51.9883L207.848 44.8164C207.848 44.6055 207.691 44.4688 207.379 44.4062C207.074 44.3438 206.785 44.2969 206.512 44.2656C206.254 44.2344 206.125 44.0898 206.125 43.832C206.125 43.7461 206.156 43.6445 206.219 43.5273C206.289 43.4102 206.391 43.3516 206.523 43.3516H210.613C210.746 43.3516 210.844 43.4102 210.906 43.5273C210.977 43.6445 211.012 43.7461 211.012 43.832C211.012 44.0039 210.98 44.1172 210.918 44.1719C210.863 44.2188 210.754 44.25 210.59 44.2656C210.301 44.2969 210.059 44.375 209.863 44.5C209.668 44.6172 209.473 44.8789 209.277 45.2852L205.926 53.7578C205.598 54.5625 205.266 55.3516 204.93 56.125C204.594 56.8984 204.23 57.5977 203.84 58.2227C203.449 58.8477 203.008 59.3438 202.516 59.7109C202.023 60.0781 201.449 60.2617 200.793 60.2617Z" fill="#2330E7"/>
<path d="M0 23.4408C0 12.3951 8.95431 3.4408 20 3.4408H63.4715V46.0428C63.4715 57.0885 54.5172 66.0428 43.4715 66.0428H0V23.4408Z" fill="#2330E7"/>
<path d="M21.6952 37.0514V54.937H19.5674V32.2902L44.5554 56.7256H49.3561L50.0654 16.4829H37.5002V33.9214L40.845 37.0514V18.6867H47.2283V54.937H45.0258L17.4396 27.5289V57.4566L24.3305 57.6199V40.1814L21.6952 37.0514Z" fill="#2330E7"/>
<path d="M13.0421 57.1727H15.3119V54.0557V50.6549V22.7677L44.5554 51.3599L44.0851 48.2299L13.0421 17.8243V51.3599V57.1727Z" fill="#2330E7"/>
<path d="M17.2752 16.4829H13.9828L45.1006 46.5738V20.7272H42.9728V41.8126L17.2752 16.4829Z" fill="#2330E7"/>
<path d="M21.6952 37.0514V54.937H19.5674V32.2902L44.5554 56.7256H49.3561L50.0654 16.4829H37.5002V33.9214L40.845 37.0514V18.6867H47.2283V54.937H45.0258L17.4396 27.5289V57.4566L24.3305 57.6199V40.1814L21.6952 37.0514Z" stroke="white" stroke-width="0.75"/>
<path d="M13.0421 57.1727H15.3119V54.0557V50.6549V22.7677L44.5554 51.3599L44.0851 48.2299L13.0421 17.8243V51.3599V57.1727Z" stroke="white" stroke-width="0.75"/>
<path d="M17.2752 16.4829H13.9828L45.1006 46.5738V20.7272H42.9728V41.8126L17.2752 16.4829Z" stroke="white" stroke-width="0.75"/>
<path d="M47.553 3.37615L52.3865 3.34069L52.422 8.17414L47.5885 8.2096L47.553 3.37615Z" fill="white" stroke="white"/>
<path d="M53.0347 8.78167L57.8682 8.74621L57.9036 13.5797L53.0702 13.6151L53.0347 8.78167Z" fill="white" stroke="white"/>
<path d="M58.5224 14.1862L63.3559 14.1507L63.3913 18.9842L58.5579 19.0197L58.5224 14.1862Z" fill="white" stroke="white"/>
<path d="M52.994 3.33648L57.8274 3.30102L57.8629 8.13447L53.0294 8.16993L52.994 3.33648Z" fill="#2330E7" stroke="#2330E7"/>
<path d="M58.4409 3.29632L63.2743 3.26086L63.3098 8.09431L58.4763 8.12977L58.4409 3.29632Z" fill="white" stroke="white"/>
<path d="M58.2886 8.74346L63.1221 8.708L63.1575 13.5415L58.3241 13.5769L58.2886 8.74346Z" fill="#2330E7" stroke="#2330E7"/>
<path d="M60.8139 0.536261L65.2584 0.503655L65.2939 5.33711L60.8493 5.36972L60.8139 0.536261Z" fill="#2330E7" stroke="#2330E7"/>
</svg>
