<svg width="32" height="32" viewBox="0 0 32 32" fill="none" xmlns="http://www.w3.org/2000/svg">
<path d="M23.0588 16.4787V15.237C23.0588 14.3876 22.3705 13.699 21.5211 13.6985L19.106 13.6973L17.8984 13.6967L17.2946 13.6964M23.0588 16.4787C20.705 18.7006 18.2343 21.0238 18.2343 21.0238H17.1171H16.8379M23.0588 16.4787C24.0504 15.5427 25.0274 14.6184 25.8041 13.8789M8.94118 16.4293V15.2448C8.94118 14.3948 9.63043 13.6926 10.4804 13.6931L12.8956 13.6943L14.1031 13.6949L14.7069 13.6952M8.94118 16.4293L8.6547 16.1663L6.19885 13.8776M8.94118 16.4293L13.9452 21.0238H14.9726H15.2295M6.19885 13.8776C6.30532 13.7138 6.43365 13.5888 6.52088 13.5229C9.04745 11.2329 14.8405 6.58871 14.8679 6.56732C15.8113 5.8314 16.6406 5.79067 17.5094 6.56729C20.045 8.83295 25.4163 13.4519 25.4163 13.4602C25.6154 13.6923 25.715 13.7216 25.8041 13.8789M6.19885 13.8776C6.08611 14.0511 5.9979 14.268 6.00898 14.5043L6 24.7363C6.03293 25.147 6.30714 25.9746 7.14055 25.9997H16.5489H24.8505C25.1738 26.0101 25.8563 25.7846 26 24.799V14.5356C25.9945 14.3889 25.9441 14.126 25.8041 13.8789M25.8041 13.8789C25.8709 13.8153 25.7404 13.9397 25.8041 13.8789Z" stroke="#2330E7" stroke-width="1.25" stroke-linecap="round"/>
</svg>
