<svg width="32" height="32" viewBox="0 0 32 32" fill="none" xmlns="http://www.w3.org/2000/svg">
<path d="M26.0445 10.9919L26.0445 10.9919C26.2279 11.098 26.3747 11.2522 26.4745 11.4324C26.5741 11.6124 26.625 11.8146 26.625 12.0179V12.018V20.823V20.8238H26C26.0001 20.9236 25.9752 21.0214 25.928 21.107C25.8807 21.1926 25.8129 21.2627 25.7317 21.3098C25.6505 21.3569 25.559 21.3792 25.467 21.3744C25.375 21.3696 25.2859 21.3378 25.2093 21.2825L26.0445 10.9919ZM26.0445 10.9919C25.8606 10.8854 25.6492 10.8329 25.4339 10.8442C25.2188 10.8556 25.0149 10.9298 24.8436 11.0535C24.8435 11.0535 24.8435 11.0536 24.8434 11.0536L22.5572 12.7033V11.2842C22.5572 10.7931 22.3774 10.3131 22.0438 9.952C21.7086 9.58919 21.2429 9.375 20.7458 9.375H7.18644C6.68933 9.375 6.22363 9.58919 5.88843 9.952C5.55478 10.3132 5.375 10.7931 5.375 11.2842V21.5577C5.375 22.0488 5.55478 22.5287 5.88843 22.8899L6.3475 22.4657L5.88843 22.8899C6.22363 23.2527 6.68933 23.4669 7.18644 23.4669H20.7458C21.2429 23.4669 21.7086 23.2527 22.0438 22.8899C22.3774 22.5287 22.5572 22.0488 22.5572 21.5577V20.1388L24.8434 21.7892M26.0445 10.9919L24.8434 21.7892M24.8434 21.7892C24.8434 21.7892 24.8435 21.7892 24.8435 21.7892L24.8434 21.7892Z" stroke="#3F3F50" stroke-width="1.25"/>
<g clip-path="url(#clip0_10760_14289)">
<path d="M13.2575 16.1646C13.565 16.1646 13.8599 16.0425 14.0773 15.8251C14.2947 15.6076 14.4169 15.3128 14.4169 15.0053C14.4169 14.6978 14.2947 14.4029 14.0773 14.1855C13.8599 13.9681 13.565 13.8459 13.2575 13.8459C12.9501 13.8459 12.6552 13.9681 12.4378 14.1855C12.2203 14.4029 12.0982 14.6978 12.0982 15.0053C12.0982 15.3128 12.2203 15.6076 12.4378 15.8251C12.6552 16.0425 12.9501 16.1646 13.2575 16.1646ZM15.2862 17.9999C15.4753 18.0773 15.7157 18.1266 16.0217 18.1266C17.4486 18.1266 17.4486 17.0564 17.4486 17.0564C17.4486 16.9146 17.3923 16.7785 17.292 16.6782C17.1918 16.5778 17.0557 16.5214 16.9139 16.5213H15.263C15.4032 16.6911 15.4874 16.9084 15.4874 17.1456V17.2726C15.4866 17.3026 15.4846 17.3326 15.4813 17.3625C15.457 17.5853 15.3906 17.8016 15.2862 17.9999ZM16.9139 15.2728C16.9139 15.5093 16.8199 15.7362 16.6527 15.9034C16.4855 16.0707 16.2586 16.1646 16.0221 16.1646C15.7856 16.1646 15.5588 16.0707 15.3915 15.9034C15.2243 15.7362 15.1303 15.5093 15.1303 15.2728C15.1303 15.0363 15.2243 14.8095 15.3915 14.6422C15.5588 14.475 15.7856 14.381 16.0221 14.381C16.2586 14.381 16.4855 14.475 16.6527 14.6422C16.8199 14.8095 16.9139 15.0363 16.9139 15.2728ZM11.3848 17.2348C11.3848 17.0456 11.4599 16.8641 11.5937 16.7303C11.7275 16.5965 11.909 16.5213 12.0982 16.5213H14.4169C14.6061 16.5213 14.7876 16.5965 14.9213 16.7303C15.0551 16.8641 15.1303 17.0456 15.1303 17.2348C15.1303 17.2348 15.1303 18.6616 13.2575 18.6616C11.3848 18.6616 11.3848 17.2348 11.3848 17.2348Z" fill="#3F3F50"/>
</g>
<defs>
<clipPath id="clip0_10760_14289">
<rect width="7.13437" height="7.13437" fill="white" transform="translate(10.9941 13.6228)"/>
</clipPath>
</defs>
</svg>
